<svg width="40" height="40" viewBox="0 0 40 40" fill="none" xmlns="http://www.w3.org/2000/svg">
<path d="M31.2904 24.0663C31.3031 23.2785 30.9167 19.3608 29.6351 19.9185C29.4842 19.9872 29.3668 20.113 29.3086 20.2683C29.2504 20.4236 29.2563 20.5956 29.325 20.7465C29.7167 21.6116 29.9519 22.5392 30.0198 23.4864H28.7995C28.6337 23.4864 28.4747 23.5522 28.3575 23.6694C28.2403 23.7866 28.1745 23.9456 28.1745 24.1114C28.1745 24.2771 28.2403 24.4361 28.3575 24.5533C28.4747 24.6705 28.6337 24.7364 28.7995 24.7364H30.0171C29.8581 26.6638 29.0203 28.4723 27.6528 29.8398C26.2853 31.2074 24.4768 32.0453 22.5494 32.2043L22.5495 30.9864C22.5464 30.8227 22.4792 30.6667 22.3623 30.552C22.2454 30.4374 22.0882 30.3731 21.9245 30.3731C21.7607 30.3731 21.6035 30.4374 21.4867 30.5521C21.3698 30.6667 21.3026 30.8227 21.2995 30.9864V32.2044C19.3665 32.0612 17.5492 31.2284 16.1787 29.8576C14.8083 28.4869 13.9758 26.6694 13.833 24.7364H15.0495C15.2152 24.7364 15.3742 24.6705 15.4914 24.5533C15.6086 24.4361 15.6745 24.2771 15.6745 24.1114C15.6745 23.9456 15.6086 23.7866 15.4914 23.6694C15.3742 23.5522 15.2152 23.4864 15.0495 23.4864H13.8303C13.8982 22.5393 14.1335 21.6117 14.5252 20.7468C15.1295 19.4256 16.0764 18.2902 17.2676 17.4585C18.4588 16.6267 19.8509 16.129 21.2995 16.0168V17.2364C21.3026 17.4001 21.3698 17.556 21.4867 17.6707C21.6036 17.7854 21.7608 17.8496 21.9245 17.8496C22.0882 17.8496 22.2454 17.7853 22.3623 17.6707C22.4792 17.556 22.5464 17.4 22.5495 17.2363V16.0168C24.4832 16.1588 26.301 16.9928 27.6697 18.3661C27.7277 18.4242 27.7966 18.4702 27.8725 18.5016C27.9483 18.533 28.0295 18.5492 28.1116 18.5492C28.1937 18.5492 28.2749 18.533 28.3508 18.5016C28.4266 18.4702 28.4955 18.4242 28.5535 18.3661C28.6115 18.3081 28.6576 18.2392 28.689 18.1634C28.7204 18.0876 28.7365 18.0063 28.7365 17.9242C28.7365 17.8422 28.7204 17.7609 28.689 17.6851C28.6576 17.6093 28.6115 17.5404 28.5535 17.4823C27.6848 16.6088 26.6514 15.9164 25.5131 15.4451C24.3749 14.9738 23.1544 14.733 21.9225 14.7368C13.6377 14.7016 9.43207 24.8827 15.2956 30.742C21.1863 36.6441 31.3672 32.3537 31.2904 24.0663Z" fill="#23A9B1"/>
<path d="M22.5495 19.7363C22.5463 19.5727 22.4791 19.4168 22.3622 19.3022C22.2453 19.1876 22.0882 19.1234 21.9245 19.1234C21.7608 19.1234 21.6037 19.1876 21.4868 19.3022C21.3699 19.4168 21.3027 19.5727 21.2995 19.7364V23.8525L19.7145 25.4373C19.5985 25.5548 19.5337 25.7133 19.5342 25.8784C19.5347 26.0434 19.6005 26.2016 19.7172 26.3183C19.8339 26.435 19.9921 26.5008 20.1571 26.5014C20.3222 26.5019 20.4808 26.4371 20.5982 26.3211L22.366 24.5536C22.4827 24.4359 22.5485 24.2771 22.5495 24.1113L22.5495 19.7363Z" fill="#23A9B1"/>
<path d="M33.7502 5.5423H30.6985C30.5516 4.91142 30.1956 4.34882 29.6882 3.94606C29.1809 3.5433 28.5523 3.32409 27.9045 3.3241C27.2568 3.32411 26.6281 3.54334 26.1208 3.94611C25.6135 4.34889 25.2574 4.9115 25.1106 5.54238L18.7381 5.5423C18.591 4.91157 18.2349 4.34916 17.7276 3.94654C17.2203 3.54393 16.5917 3.3248 15.9441 3.32481C15.2965 3.32482 14.6679 3.54397 14.1606 3.9466C13.6533 4.34923 13.2972 4.91165 13.1502 5.54238L10.1003 5.5423C10.0881 5.5423 10.0763 5.54401 10.0641 5.54413H6.86297C5.70635 5.54546 4.59747 6.00549 3.77959 6.82332C2.9617 7.64115 2.50159 8.75 2.50018 9.90662C2.54706 10.3453 2.46639 31.2152 2.50028 32.3361C2.49792 33.1438 2.72145 33.9361 3.14562 34.6234C3.56979 35.3108 4.1777 35.8658 4.90069 36.2259C5.04879 36.3002 5.22031 36.3126 5.37758 36.2605C5.53485 36.2084 5.66499 36.096 5.73941 35.9479C5.81383 35.7999 5.82643 35.6284 5.77446 35.4711C5.72248 35.3138 5.61017 35.1835 5.46222 35.109C4.94672 34.8523 4.51323 34.4567 4.21071 33.9667C3.90818 33.4768 3.74867 32.912 3.75018 32.3361V12.7744H6.35028V32.9486C6.35136 33.9428 6.7468 34.896 7.44983 35.5991C8.15285 36.3021 9.10605 36.6975 10.1003 36.6986H33.7502C34.7444 36.6975 35.6976 36.3021 36.4006 35.5991C37.1037 34.896 37.4991 33.9428 37.5002 32.9486V15.2734C37.4972 15.1097 37.43 14.9536 37.3131 14.8389C37.1962 14.7242 37.039 14.6599 36.8752 14.6599C36.7114 14.6599 36.5541 14.7242 36.4372 14.8389C36.3204 14.9537 36.2532 15.1097 36.2502 15.2735V32.9486C36.2495 33.6114 35.9859 34.2469 35.5172 34.7156C35.0485 35.1843 34.413 35.4479 33.7502 35.4486H10.1003C9.43746 35.4479 8.80198 35.1843 8.33329 34.7156C7.8646 34.2469 7.60099 33.6114 7.60028 32.9486V12.7744H36.8752C36.9573 12.7744 37.0385 12.7582 37.1144 12.7268C37.1902 12.6954 37.2591 12.6494 37.3172 12.5914C37.3752 12.5333 37.4212 12.4644 37.4526 12.3886C37.4841 12.3127 37.5002 12.2315 37.5002 12.1494V9.2923C37.4991 8.29807 37.1037 7.34487 36.4006 6.64185C35.6976 5.93882 34.7444 5.54339 33.7502 5.5423ZM27.9048 4.55139C28.2232 4.55178 28.5344 4.64597 28.7995 4.82221C29.0647 4.99844 29.272 5.24891 29.3956 5.5423H26.4134C26.5371 5.24884 26.7446 4.99835 27.0098 4.82211C27.2751 4.64587 27.5864 4.55171 27.9048 4.55139ZM15.9444 4.55139C16.2628 4.55178 16.574 4.64597 16.8391 4.82221C17.1042 4.99844 17.3116 5.24891 17.4352 5.5423H14.453C14.5767 5.24884 14.7841 4.99835 15.0494 4.82211C15.3146 4.64587 15.6259 4.55171 15.9444 4.55139ZM6.86297 6.79413H7.31139C6.69303 7.4793 6.3506 8.36936 6.35028 9.2923V11.5244H3.75018V9.90662C3.75116 9.08138 4.07943 8.29023 4.66299 7.70673C5.24655 7.12323 6.03774 6.79503 6.86297 6.79413ZM7.60028 9.2923C7.60776 8.92215 7.69468 8.55793 7.85517 8.2243C8.01565 7.89067 8.24595 7.59542 8.53047 7.35853C8.81499 7.12165 9.14709 6.94867 9.50428 6.8513C9.86147 6.75393 10.2354 6.73445 10.6008 6.79418C10.6274 6.78889 13.6852 6.79405 13.7104 6.7923H17.4363C17.3131 7.0865 17.1059 7.3378 16.8405 7.51467C16.5751 7.69155 16.2634 7.78613 15.9444 7.78656C15.7808 7.78976 15.6249 7.85702 15.5103 7.97388C15.3957 8.09075 15.3315 8.2479 15.3315 8.41159C15.3315 8.57527 15.3957 8.73242 15.5103 8.84928C15.6249 8.96614 15.7808 9.03338 15.9445 9.03656C16.5958 9.03521 17.2274 8.81228 17.7353 8.40442C18.2432 7.99656 18.5972 7.42804 18.7392 6.79231H25.6527C25.668 6.79236 29.3785 6.79227 29.3968 6.79231C29.2736 7.08651 29.0663 7.3378 28.8009 7.51468C28.5355 7.69155 28.2238 7.78614 27.9048 7.78657C27.7411 7.7896 27.585 7.85677 27.4703 7.97366C27.3556 8.09054 27.2913 8.2478 27.2913 8.41159C27.2913 8.57538 27.3556 8.73263 27.4703 8.84951C27.5851 8.96638 27.7411 9.03356 27.9049 9.03657C28.5563 9.03522 29.1878 8.81229 29.6957 8.40443C30.2036 7.99657 30.5576 7.42805 30.6996 6.79231H33.7502C34.413 6.79302 35.0485 7.05664 35.5172 7.52533C35.9859 7.99402 36.2495 8.62949 36.2502 9.29231V11.5244H7.60028V9.2923Z" fill="#23A9B1"/>
</svg>
