<svg width="18" height="24" viewBox="0 0 18 24" fill="none" xmlns="http://www.w3.org/2000/svg">
<path d="M14.25 24H3.75C2.9546 23.9992 2.19202 23.6828 1.62959 23.1204C1.06716 22.558 0.750827 21.7954 0.75 21V3C0.750827 2.2046 1.06716 1.44202 1.62959 0.879593C2.19202 0.317163 2.9546 0.000827245 3.75 0L14.25 0C15.0454 0.000827245 15.808 0.317163 16.3704 0.879593C16.9328 1.44202 17.2492 2.2046 17.25 3V21C17.2492 21.7954 16.9328 22.558 16.3704 23.1204C15.808 23.6828 15.0454 23.9992 14.25 24ZM3.75 1.5C3.35218 1.5 2.97064 1.65804 2.68934 1.93934C2.40804 2.22064 2.25 2.60218 2.25 3V21C2.25 21.3978 2.40804 21.7794 2.68934 22.0607C2.97064 22.342 3.35218 22.5 3.75 22.5H14.25C14.6478 22.5 15.0294 22.342 15.3107 22.0607C15.592 21.7794 15.75 21.3978 15.75 21V3C15.75 2.60218 15.592 2.22064 15.3107 1.93934C15.0294 1.65804 14.6478 1.5 14.25 1.5H3.75Z" fill="#FF312C"/>
<path d="M11.25 21H6.75C6.55109 21 6.36032 20.921 6.21967 20.7803C6.07902 20.6397 6 20.4489 6 20.25C6 20.0511 6.07902 19.8603 6.21967 19.7197C6.36032 19.579 6.55109 19.5 6.75 19.5H11.25C11.4489 19.5 11.6397 19.579 11.7803 19.7197C11.921 19.8603 12 20.0511 12 20.25C12 20.4489 11.921 20.6397 11.7803 20.7803C11.6397 20.921 11.4489 21 11.25 21Z" fill="#FF312C"/>
</svg>
