<svg width="40" height="40" viewBox="0 0 40 40" fill="none" xmlns="http://www.w3.org/2000/svg">
<path d="M36.4088 8.25595C36.3327 8.11098 36.2029 8.00162 36.0471 7.95137C35.8913 7.90111 35.722 7.91398 35.5755 7.9872C35.4291 8.06041 35.3173 8.18814 35.264 8.34294C35.2107 8.49774 35.2203 8.66726 35.2907 8.81507C35.8306 9.8931 36.1509 11.0677 36.2331 12.2705H34.7865C34.6207 12.2705 34.4617 12.3364 34.3445 12.4536C34.2273 12.5708 34.1615 12.7298 34.1615 12.8955C34.1615 13.0613 34.2273 13.2203 34.3445 13.3375C34.4617 13.4547 34.6207 13.5205 34.7865 13.5205H36.2286C36.0703 17.8647 32.0756 21.8395 27.7551 21.981L27.7552 20.5524C27.7521 20.3887 27.6849 20.2327 27.568 20.1181C27.4511 20.0034 27.2939 19.9392 27.1302 19.9392C26.9665 19.9392 26.8093 20.0034 26.6924 20.1181C26.5755 20.2328 26.5083 20.3887 26.5052 20.5524V21.9813C24.3074 21.8375 22.2365 20.9003 20.678 19.344C19.1194 17.7877 18.1792 15.7182 18.0322 13.5205H19.4734C19.6391 13.5205 19.7981 13.4547 19.9153 13.3375C20.0325 13.2203 20.0984 13.0613 20.0984 12.8955C20.0984 12.7298 20.0325 12.5708 19.9153 12.4536C19.7981 12.3364 19.6391 12.2705 19.4734 12.2705H18.0281C18.1784 10.073 19.1201 8.00442 20.6788 6.44807C22.2375 4.89172 24.3075 3.95311 26.5052 3.80616V5.23901C26.5052 5.40477 26.5711 5.56375 26.6883 5.68096C26.8055 5.79817 26.9645 5.86401 27.1302 5.86401C27.296 5.86401 27.455 5.79817 27.5722 5.68096C27.6894 5.56375 27.7552 5.40477 27.7552 5.23901V3.80611C29.9531 3.94795 32.0238 4.88693 33.5786 6.44687C33.6366 6.5049 33.7055 6.55093 33.7814 6.58234C33.8572 6.61374 33.9384 6.62991 34.0205 6.62991C34.1026 6.62991 34.1838 6.61374 34.2597 6.58234C34.3355 6.55093 34.4044 6.5049 34.4624 6.44687C34.5204 6.38884 34.5665 6.31995 34.5979 6.24413C34.6293 6.16831 34.6454 6.08704 34.6454 6.00498C34.6454 5.92291 34.6293 5.84165 34.5979 5.76583C34.5665 5.69 34.5204 5.62111 34.4624 5.56308C32.5188 3.63734 29.8956 2.5535 27.1595 2.5457C24.4235 2.5379 21.7942 3.60676 19.8396 5.52139C13.259 12.0114 17.9498 23.2694 27.0996 23.2591C34.6598 23.3853 39.9147 15.0774 36.4088 8.25595Z" fill="#23A9B1"/>
<path d="M27.1301 7.39807C27.048 7.39805 26.9667 7.4142 26.8909 7.4456C26.815 7.477 26.7461 7.52304 26.6881 7.58108C26.63 7.63912 26.584 7.70803 26.5526 7.78387C26.5212 7.85971 26.505 7.94099 26.5051 8.02307V12.6367L24.7192 14.4226C24.602 14.5398 24.5361 14.6988 24.5361 14.8645C24.5361 15.0302 24.602 15.1892 24.7192 15.3064C24.8364 15.4236 24.9953 15.4894 25.1611 15.4894C25.3268 15.4894 25.4858 15.4236 25.603 15.3064L27.5715 13.3378C27.6882 13.2201 27.7541 13.0613 27.7551 12.8955V8.02307C27.7551 7.94099 27.7389 7.85971 27.7075 7.78387C27.6761 7.70803 27.6301 7.63912 27.572 7.58108C27.514 7.52304 27.4451 7.477 27.3693 7.4456C27.2934 7.4142 27.2121 7.39805 27.1301 7.39807Z" fill="#23A9B1"/>
<path d="M31.5681 27.3212C30.721 26.4429 29.5698 26.4051 28.5542 26.3715C27.5204 26.3417 26.4946 26.1799 25.5019 25.8899C24.2591 25.514 22.8565 25.2294 21.7378 26.1891C20.7541 26.9565 19.8136 27.6529 18.8081 28.418C16.6486 27.2682 14.7567 25.6747 13.2564 23.7421C13.2063 23.6771 13.1439 23.6226 13.0727 23.5817C13.0016 23.5408 12.9231 23.5144 12.8417 23.5038C12.7603 23.4933 12.6776 23.4989 12.5984 23.5203C12.5192 23.5417 12.4449 23.5785 12.3799 23.6286C12.3149 23.6787 12.2604 23.7411 12.2195 23.8122C12.1786 23.8834 12.1522 23.9619 12.1416 24.0433C12.1311 24.1247 12.1367 24.2073 12.1581 24.2866C12.1795 24.3658 12.2163 24.44 12.2664 24.505C13.8766 26.5804 15.908 28.2911 18.2271 29.5246C18.4352 29.651 18.6781 29.7081 18.9207 29.6875C19.1634 29.667 19.3932 29.57 19.5772 29.4104C20.0319 29.0558 21.996 27.5763 22.5087 27.1729C23.8961 26.152 25.4945 27.4763 27.0339 27.4803C29.7034 27.8607 31.4237 27.091 31.1409 30.7081C30.9491 32.3884 31.7965 35.7938 29.963 36.1798C16.468 37.3089 3.20827 24.1223 3.75463 10.6981C3.60901 8.16412 7.26635 9.03415 9.31783 8.8819C13.0402 8.5624 12.1396 10.5125 12.5672 13.1846C12.6457 13.7871 12.7777 14.3813 12.9616 14.9604C13.2655 16.0071 13.4364 16.8021 12.8603 17.5007C12.0989 18.4784 11.3759 19.4701 10.6105 20.449C10.0409 21.0129 10.4229 22.4651 11.354 22.0631C11.4272 22.0239 11.4919 21.9705 11.5442 21.906C11.5966 21.8415 11.6356 21.7672 11.6589 21.6875C11.6823 21.6078 11.6895 21.5242 11.6802 21.4416C11.6709 21.3591 11.6453 21.2792 11.6048 21.2067C12.3672 20.2315 13.0969 19.2304 13.8582 18.2544C14.8567 17.0032 14.4557 15.6226 14.164 14.6204C13.9906 14.0717 13.8667 13.5087 13.7935 12.938C13.4805 11.4508 13.9804 9.72939 12.6942 8.44212C11.0899 7.08659 9.11527 7.82157 7.27556 7.62414C5.41519 7.58061 2.59964 7.51256 2.50443 10.6672C2.36649 17.7597 5.45426 24.8468 10.9755 30.1111C16.3722 35.2218 23.2714 37.9134 30.2126 37.4061C32.5014 36.8403 32.4397 34.5826 32.3946 32.9346C32.1901 31.0358 32.9651 28.9856 31.5681 27.3212Z" fill="#23A9B1"/>
</svg>
