<svg width="32" height="32" viewBox="0 0 32 32" fill="none" xmlns="http://www.w3.org/2000/svg">
<path d="M5.34033 27.1875H26.6595C27.7783 27.1875 28.8514 26.743 29.6426 25.9519C30.4337 25.1607 30.8782 24.0876 30.8782 22.9688C30.8782 21.8499 30.4337 20.7768 29.6426 19.9856C28.8514 19.1945 27.7783 18.75 26.6595 18.75H16.5624V12.625C16.5624 12.4758 16.5031 12.3327 16.3976 12.2273C16.2922 12.1218 16.1491 12.0625 15.9999 12.0625C15.8507 12.0625 15.7076 12.1218 15.6021 12.2273C15.4967 12.3327 15.4374 12.4758 15.4374 12.625V18.75H5.34033C4.22145 18.75 3.14839 19.1945 2.35723 19.9856C1.56606 20.7768 1.12158 21.8499 1.12158 22.9688C1.12158 24.0876 1.56606 25.1607 2.35723 25.9519C3.14839 26.743 4.22145 27.1875 5.34033 27.1875ZM11.1249 22.4375H20.8749C21.0241 22.4375 21.1672 22.4968 21.2726 22.6023C21.3781 22.7077 21.4374 22.8508 21.4374 23C21.4374 23.1492 21.3781 23.2923 21.2726 23.3977C21.1672 23.5032 21.0241 23.5625 20.8749 23.5625H11.1249C10.9757 23.5625 10.8326 23.5032 10.7271 23.3977C10.6217 23.2923 10.5624 23.1492 10.5624 23C10.5624 22.8508 10.6217 22.7077 10.7271 22.6023C10.8326 22.4968 10.9757 22.4375 11.1249 22.4375Z" fill="#FF312C"/>
<path d="M19.0304 9.38249C19.1417 9.38252 19.2505 9.34954 19.343 9.28774C19.4355 9.22593 19.5076 9.13807 19.5502 9.03527C19.5928 8.93247 19.604 8.81935 19.5822 8.71022C19.5605 8.60109 19.5069 8.50085 19.4282 8.42218C18.5183 7.51435 17.2855 7.00452 16.0001 7.00452C14.7148 7.00452 13.4819 7.51435 12.572 8.42218C12.4665 8.52768 12.4072 8.67077 12.4072 8.81996C12.4072 8.89384 12.4218 8.96699 12.45 9.03524C12.4783 9.10349 12.5198 9.16551 12.572 9.21774C12.6242 9.26998 12.6862 9.31142 12.7545 9.33969C12.8227 9.36796 12.8959 9.38251 12.9698 9.38251C13.119 9.38251 13.2621 9.32324 13.3676 9.21774C14.0663 8.52056 15.013 8.12902 16.0001 8.12902C16.9871 8.12902 17.9338 8.52056 18.6326 9.21774C18.6848 9.27006 18.7468 9.31155 18.8151 9.33982C18.8833 9.3681 18.9565 9.3826 19.0304 9.38249Z" fill="#FF312C"/>
<path d="M14.176 10.0261C14.0705 10.1316 14.0112 10.2747 14.0112 10.4239C14.0112 10.5731 14.0705 10.7162 14.176 10.8217C14.2815 10.9271 14.4246 10.9864 14.5738 10.9864C14.723 10.9864 14.866 10.9271 14.9715 10.8216C15.2445 10.5492 15.6145 10.3962 16.0002 10.3962C16.3858 10.3962 16.7558 10.5492 17.0288 10.8216C17.1343 10.9271 17.2774 10.9864 17.4265 10.9864C17.5757 10.9864 17.7188 10.9271 17.8243 10.8217C17.9298 10.7162 17.9891 10.5731 17.9891 10.4239C17.9891 10.2747 17.9298 10.1316 17.8244 10.0261C17.5848 9.78657 17.3004 9.59654 16.9874 9.46689C16.6744 9.33724 16.3389 9.27051 16.0002 9.27051C15.6614 9.27051 15.3259 9.33724 15.0129 9.46689C14.6999 9.59654 14.4155 9.78657 14.176 10.0261Z" fill="#FF312C"/>
<path d="M20.4955 7.77338C20.6068 7.77338 20.7155 7.7404 20.808 7.67859C20.9005 7.61678 20.9726 7.52893 21.0152 7.42614C21.0578 7.32336 21.0689 7.21026 21.0472 7.10114C21.0255 6.99203 20.9719 6.8918 20.8933 6.81313C19.5955 5.51542 17.8354 4.78638 16.0002 4.78638C14.1649 4.78638 12.4049 5.51542 11.1071 6.81313C11.0549 6.86537 11.0135 6.92738 10.9852 6.99562C10.9569 7.06387 10.9424 7.13701 10.9424 7.21088C10.9424 7.28475 10.9569 7.3579 10.9852 7.42614C11.0135 7.49439 11.0549 7.5564 11.1071 7.60863C11.1594 7.66087 11.2214 7.7023 11.2896 7.73057C11.3579 7.75884 11.431 7.77339 11.5049 7.77339C11.5788 7.77339 11.6519 7.75884 11.7201 7.73057C11.7884 7.7023 11.8504 7.66087 11.9026 7.60863C12.9902 6.52348 14.4638 5.91405 16.0002 5.91405C17.5366 5.91405 19.0102 6.52348 20.0978 7.60863C20.1499 7.66094 20.2119 7.70243 20.2802 7.7307C20.3485 7.75897 20.4216 7.77348 20.4955 7.77338Z" fill="#FF312C"/>
</svg>
