<svg width="40" height="40" viewBox="0 0 40 40" fill="none" xmlns="http://www.w3.org/2000/svg">
<path d="M35 5.9375H5C4.33716 5.93816 3.70166 6.20177 3.23296 6.67046C2.76427 7.13916 2.50066 7.77466 2.5 8.4375V12.1875C2.49995 12.2696 2.51609 12.3509 2.54748 12.4267C2.57887 12.5026 2.62491 12.5715 2.68295 12.6295C2.741 12.6876 2.80992 12.7336 2.88577 12.765C2.96162 12.7964 3.04291 12.8125 3.125 12.8125H33.75C33.9158 12.8125 34.0747 12.7467 34.1919 12.6294C34.3092 12.5122 34.375 12.3533 34.375 12.1875C34.375 12.0217 34.3092 11.8628 34.1919 11.7456C34.0747 11.6283 33.9158 11.5625 33.75 11.5625H3.75V8.4375C3.75043 8.10611 3.88226 7.78842 4.11659 7.55409C4.35092 7.31976 4.66861 7.18793 5 7.1875H35C35.3314 7.18793 35.6491 7.31976 35.8834 7.55409C36.1177 7.78842 36.2496 8.10611 36.25 8.4375V31.5625C36.2496 31.8939 36.1177 32.2116 35.8834 32.4459C35.6491 32.6802 35.3314 32.8121 35 32.8125H5C4.66861 32.8121 4.35092 32.6802 4.11659 32.4459C3.88226 32.2116 3.75043 31.8939 3.75 31.5625V15.3125C3.74745 15.1484 3.68048 14.9919 3.56355 14.8768C3.44661 14.7617 3.28909 14.6971 3.12498 14.6971C2.96088 14.6971 2.80336 14.7617 2.68643 14.8768C2.5695 14.9919 2.50254 15.1484 2.5 15.3125V31.5625C2.50066 32.2253 2.76427 32.8608 3.23296 33.3295C3.70166 33.7982 4.33716 34.0618 5 34.0625H35C35.6628 34.0618 36.2983 33.7982 36.767 33.3295C37.2357 32.8608 37.4993 32.2253 37.5 31.5625V8.4375C37.4993 7.77466 37.2357 7.13916 36.767 6.67046C36.2983 6.20177 35.6628 5.93816 35 5.9375Z" fill="#23A9B1"/>
<path d="M5.625 9.37504C5.6282 9.53869 5.69545 9.69456 5.81232 9.80916C5.92918 9.92376 6.08634 9.98796 6.25002 9.98795C6.4137 9.98795 6.57085 9.92375 6.68771 9.80913C6.80457 9.69452 6.87181 9.53865 6.875 9.375C6.8718 9.21135 6.80455 9.05548 6.68768 8.94088C6.57082 8.82627 6.41366 8.76208 6.24998 8.76208C6.0863 8.76209 5.92915 8.82629 5.81229 8.9409C5.69543 9.05551 5.62819 9.21139 5.625 9.37504Z" fill="#23A9B1"/>
<path d="M8.125 9.37504C8.1282 9.53869 8.19545 9.69456 8.31232 9.80916C8.42918 9.92376 8.58634 9.98796 8.75002 9.98795C8.9137 9.98795 9.07085 9.92375 9.18771 9.80913C9.30457 9.69452 9.37181 9.53865 9.375 9.375C9.3718 9.21135 9.30455 9.05548 9.18768 8.94088C9.07082 8.82627 8.91366 8.76208 8.74998 8.76208C8.5863 8.76209 8.42915 8.82629 8.31229 8.9409C8.19543 9.05551 8.12819 9.21139 8.125 9.37504Z" fill="#23A9B1"/>
<path d="M10.625 9.37504C10.6282 9.53869 10.6954 9.69456 10.8123 9.80916C10.9292 9.92376 11.0863 9.98796 11.25 9.98795C11.4137 9.98795 11.5709 9.92375 11.6877 9.80913C11.8046 9.69452 11.8718 9.53865 11.875 9.375C11.8718 9.21135 11.8046 9.05548 11.6877 8.94088C11.5708 8.82627 11.4137 8.76208 11.25 8.76208C11.0863 8.76209 10.9291 8.82629 10.8123 8.9409C10.6954 9.05551 10.6282 9.21139 10.625 9.37504Z" fill="#23A9B1"/>
<path d="M21.8953 18.4375H33.1453C33.3111 18.4375 33.4701 18.3717 33.5873 18.2544C33.7045 18.1372 33.7703 17.9783 33.7703 17.8125C33.7703 17.6467 33.7045 17.4878 33.5873 17.3706C33.4701 17.2533 33.3111 17.1875 33.1453 17.1875H21.8953C21.7317 17.1908 21.576 17.2581 21.4614 17.3749C21.3469 17.4918 21.2827 17.6489 21.2827 17.8125C21.2827 17.9761 21.3469 18.1332 21.4614 18.2501C21.576 18.3669 21.7317 18.4342 21.8953 18.4375Z" fill="#23A9B1"/>
<path d="M21.8953 23.4375H33.1453C33.3111 23.4375 33.4701 23.3717 33.5873 23.2544C33.7045 23.1372 33.7703 22.9783 33.7703 22.8125C33.7703 22.6467 33.7045 22.4878 33.5873 22.3706C33.4701 22.2533 33.3111 22.1875 33.1453 22.1875H21.8953C21.7317 22.1908 21.576 22.2581 21.4614 22.3749C21.3469 22.4918 21.2827 22.6489 21.2827 22.8125C21.2827 22.9761 21.3469 23.1332 21.4614 23.2501C21.576 23.3669 21.7317 23.4342 21.8953 23.4375Z" fill="#23A9B1"/>
<path d="M21.8953 28.4375H33.1453C33.3111 28.4375 33.4701 28.3717 33.5873 28.2544C33.7045 28.1372 33.7703 27.9783 33.7703 27.8125C33.7703 27.6467 33.7045 27.4878 33.5873 27.3706C33.4701 27.2533 33.3111 27.1875 33.1453 27.1875H21.8953C21.7317 27.1908 21.576 27.2581 21.4614 27.3749C21.3469 27.4918 21.2827 27.6489 21.2827 27.8125C21.2827 27.9761 21.3469 28.1332 21.4614 28.2501C21.576 28.3669 21.7317 28.4342 21.8953 28.4375Z" fill="#23A9B1"/>
<path d="M7.15211 29.0625H6.85506C6.6909 29.0649 6.53429 29.1319 6.41907 29.2488C6.30385 29.3657 6.23926 29.5233 6.23926 29.6875C6.23926 29.8517 6.30385 30.0093 6.41907 30.1262C6.53429 30.2431 6.6909 30.3101 6.85506 30.3125H18.8112C18.9749 30.3094 19.1309 30.2422 19.2456 30.1253C19.3602 30.0084 19.4245 29.8512 19.4245 29.6875C19.4245 29.5237 19.3602 29.3665 19.2455 29.2497C19.1309 29.1328 18.9749 29.0656 18.8112 29.0625H18.5142C18.408 27.763 17.9789 26.5107 17.2657 25.4192C16.5525 24.3278 15.5779 23.4318 14.4305 22.8127C15.5779 22.1935 16.5525 21.2974 17.2656 20.2059C17.9788 19.1144 18.408 17.862 18.5142 16.5625H18.8112C18.9754 16.5601 19.132 16.4931 19.2472 16.3762C19.3624 16.2592 19.427 16.1017 19.427 15.9375C19.427 15.7733 19.3624 15.6157 19.2472 15.4988C19.132 15.3818 18.9754 15.3149 18.8112 15.3125H6.85506C6.69135 15.3156 6.5354 15.3828 6.42073 15.4997C6.30606 15.6166 6.24182 15.7738 6.24182 15.9375C6.24183 16.1013 6.30608 16.2585 6.42076 16.3753C6.53544 16.4922 6.69139 16.5594 6.8551 16.5625H7.15211C7.25832 17.862 7.68751 19.1144 8.40067 20.2059C9.11384 21.2974 10.0884 22.1935 11.2358 22.8127C10.0884 23.4318 9.11379 24.3278 8.40061 25.4192C7.68743 26.5107 7.25827 27.763 7.15211 29.0625ZM8.40993 16.5625H17.2564C17.1346 17.8206 16.6525 19.0168 15.868 20.0078C15.0834 20.9988 14.0297 21.7425 12.8331 22.1497C11.6366 21.7425 10.5829 20.9988 9.79834 20.0078C9.0138 19.0168 8.53173 17.8206 8.40993 16.5625ZM12.7517 23.5046C12.7758 23.4887 12.8042 23.4801 12.8331 23.4801C12.8621 23.4801 12.8905 23.4887 12.9146 23.5046C14.0922 23.9219 15.1263 24.6664 15.8953 25.6509C16.6644 26.6354 17.1366 27.819 17.2564 29.0625H8.40989C8.5297 27.819 9.00187 26.6354 9.77096 25.6509C10.54 24.6664 11.5741 23.9219 12.7517 23.5046Z" fill="#23A9B1"/>
</svg>
