<svg width="32" height="32" viewBox="0 0 32 32" fill="none" xmlns="http://www.w3.org/2000/svg">
<g clip-path="url(#clip0_905_2292)">
<path d="M19.4676 25.5589V25.9992C19.4676 27.1773 18.5125 28.1324 17.3344 28.1324H2.13561C0.957499 28.1324 0.00244141 27.1773 0.00244141 25.9992V25.5589C0.00244141 25.3734 0.187293 25.2439 0.360946 25.309C0.637591 25.4127 0.932168 25.4659 1.23501 25.4659C1.23501 25.4659 18.3463 25.4639 18.401 25.4605C18.6499 25.4444 18.8879 25.3918 19.1091 25.309C19.2827 25.2439 19.4676 25.3734 19.4676 25.5589Z" fill="#FF312C"/>
<path d="M17.3345 7.33405H2.13567C0.957568 7.33405 0.00251046 8.2891 0.00251046 9.46721C0.00251046 24.4382 -0.0120217 23.5102 0.0288417 23.6299C0.192029 24.1078 0.706655 24.3994 1.23508 24.3994C19.4486 24.3994 18.2733 24.4049 18.4011 24.3894C19.0608 24.3161 19.4676 23.8208 19.4676 23.4632V9.46721C19.4676 8.2891 18.5126 7.33405 17.3345 7.33405ZM10.535 16.9333H8.93514C8.64063 16.9333 8.40184 16.6945 8.40184 16.4C8.40184 16.1055 8.64063 15.8667 8.93514 15.8667H10.535C10.8295 15.8667 11.0683 16.1055 11.0683 16.4C11.0683 16.6945 10.8295 16.9333 10.535 16.9333Z" fill="#FF312C"/>
<path d="M26.867 15.6C27.7505 15.6 28.4668 14.8837 28.4668 14.0001C28.4668 13.1166 27.7505 12.4003 26.867 12.4003C25.9834 12.4003 25.2671 13.1166 25.2671 14.0001C25.2671 14.8837 25.9834 15.6 26.867 15.6Z" fill="#FF312C"/>
<path d="M29.8666 3.33435H23.8671C22.6911 3.33435 21.7339 4.29094 21.7339 5.46751V26.5325C21.7339 27.7091 22.6911 28.6657 23.8671 28.6657H29.8666C31.0425 28.6657 31.9997 27.7091 31.9997 26.5325V5.46751C31.9997 4.29094 31.0425 3.33435 29.8666 3.33435ZM26.8668 7.00073C27.4549 7.00073 27.9334 7.47922 27.9334 8.06731C27.9334 8.6554 27.4549 9.13389 26.8668 9.13389C26.2787 9.13389 25.8002 8.6554 25.8002 8.06731C25.8002 7.47922 26.2787 7.00073 26.8668 7.00073ZM25.2003 20.0664C24.7592 20.0664 24.4003 19.7075 24.4003 19.2664C24.4003 18.8253 24.7592 18.4665 25.2003 18.4665C25.6414 18.4665 26.0002 18.8253 26.0002 19.2664C26.0002 19.7075 25.6414 20.0664 25.2003 20.0664ZM28.5333 20.0664C28.0922 20.0664 27.7334 19.7075 27.7334 19.2664C27.7334 18.8253 28.0922 18.4665 28.5333 18.4665C28.9744 18.4665 29.3333 18.8253 29.3333 19.2664C29.3333 19.7075 28.9744 20.0664 28.5333 20.0664ZM26.8668 16.6666C25.3965 16.6666 24.2004 15.4705 24.2004 14.0002C24.2004 12.5299 25.3965 11.3337 26.8668 11.3337C28.3371 11.3337 29.5333 12.5299 29.5333 14.0002C29.5333 15.4705 28.337 16.6666 26.8668 16.6666Z" fill="#FF312C"/>
</g>
<defs>
<clipPath id="clip0_905_2292">
<rect width="32" height="32" fill="white"/>
</clipPath>
</defs>
</svg>
