<svg width="60" height="60" viewBox="0 0 60 60" fill="none" xmlns="http://www.w3.org/2000/svg">
<path d="M28.0128 8.66037C27.8186 8.66103 27.6306 8.59197 27.483 8.46574C27.3354 8.33951 27.2381 8.1645 27.2086 7.97254C27.1791 7.78059 27.2196 7.58443 27.3225 7.41976C27.4255 7.25508 27.5841 7.13283 27.7696 7.07523L30.1209 6.33739C30.3261 6.27288 30.5484 6.29251 30.7391 6.39195C30.8335 6.44119 30.9173 6.50855 30.9857 6.59017C31.0541 6.67179 31.1057 6.76609 31.1377 6.86766C31.1696 6.96924 31.1812 7.07612 31.1719 7.18219C31.1625 7.28826 31.1323 7.39145 31.0831 7.48587C31.0339 7.58028 30.9665 7.66407 30.8849 7.73246C30.8033 7.80084 30.709 7.85248 30.6074 7.88442L28.256 8.62226C28.1775 8.64761 28.0954 8.66047 28.0128 8.66037Z" fill="#252525"/>
<path d="M41.4488 57.1621H18.5515C18.3365 57.1621 18.1303 57.0767 17.9782 56.9246C17.8261 56.7726 17.7407 56.5663 17.7407 56.3513V10.7999C17.7405 10.6273 17.7955 10.459 17.8976 10.3197C17.9997 10.1805 18.1436 10.0774 18.3083 10.0256L22.094 8.84183C22.2992 8.77732 22.5217 8.79698 22.7125 8.89651C22.9032 8.99603 23.0466 9.16725 23.1111 9.3725C23.1756 9.57776 23.156 9.80024 23.0565 9.99099C22.9569 10.1817 22.7857 10.3252 22.5805 10.3897L19.3623 11.3959V55.5405H40.638V4.75048L36.2823 6.1094C36.077 6.17391 35.8544 6.1542 35.6636 6.0546C35.4727 5.955 35.3293 5.78368 35.2648 5.57832C35.2003 5.37295 35.22 5.15037 35.3196 4.95954C35.4192 4.76871 35.5905 4.62526 35.7959 4.56075L41.204 2.87426C41.3255 2.83605 41.4543 2.827 41.5799 2.84785C41.7056 2.8687 41.8246 2.91887 41.9272 2.99428C42.0299 3.0697 42.1133 3.16823 42.1708 3.28191C42.2283 3.39559 42.2582 3.52121 42.258 3.64859V56.3513C42.258 56.5661 42.1728 56.772 42.0211 56.924C41.8694 57.0761 41.6636 57.1617 41.4488 57.1621Z" fill="#252525"/>
<path d="M54.3245 57.1621H41.4529C41.2379 57.1621 41.0316 57.0767 40.8796 56.9246C40.7275 56.7726 40.6421 56.5664 40.6421 56.3513V20.2175C40.6421 20.0848 40.6747 19.954 40.737 19.8368C40.7994 19.7196 40.8896 19.6195 40.9997 19.5453C41.1097 19.471 41.2364 19.425 41.3684 19.4112C41.5005 19.3973 41.6339 19.4161 41.757 19.4659L54.6294 24.6924C54.779 24.7531 54.907 24.857 54.9971 24.9909C55.0873 25.1248 55.1354 25.2826 55.1353 25.444V56.3513C55.1353 56.5664 55.0499 56.7726 54.8979 56.9246C54.7458 57.0767 54.5396 57.1621 54.3245 57.1621ZM42.2637 55.5405H53.5137V25.9897L42.2637 21.4216V55.5405Z" fill="#252525"/>
<path d="M18.5472 57.1621H5.67556C5.46052 57.1621 5.25428 57.0767 5.10223 56.9246C4.95017 56.7726 4.86475 56.5664 4.86475 56.3513V25.444C4.86468 25.2826 4.9128 25.1248 5.00294 24.9909C5.09307 24.857 5.22112 24.7531 5.37069 24.6924L18.2431 19.4659C18.3662 19.4161 18.4996 19.3973 18.6317 19.4112C18.7637 19.425 18.8903 19.471 19.0004 19.5453C19.1105 19.6195 19.2007 19.7196 19.263 19.8368C19.3254 19.954 19.358 20.0848 19.358 20.2175V56.3513C19.358 56.5664 19.2726 56.7726 19.1205 56.9246C18.9685 57.0767 18.7622 57.1621 18.5472 57.1621ZM6.48637 55.5405H17.7364V21.4216L6.48637 25.9897V55.5405Z" fill="#252525"/>
<path d="M57.5675 57.1621H2.43239C2.21735 57.1621 2.01112 57.0767 1.85906 56.9247C1.70701 56.7726 1.62158 56.5664 1.62158 56.3513C1.62158 56.1363 1.70701 55.9301 1.85906 55.778C2.01112 55.626 2.21735 55.5405 2.43239 55.5405H57.5675C57.7826 55.5405 57.9888 55.626 58.1409 55.778C58.2929 55.9301 58.3783 56.1363 58.3783 56.3513C58.3783 56.5664 58.2929 56.7726 58.1409 56.9247C57.9888 57.0767 57.7826 57.1621 57.5675 57.1621Z" fill="#252525"/>
<path d="M35.4391 49.054H33.9529C33.7379 49.054 33.5316 48.9686 33.3796 48.8165C33.2275 48.6645 33.1421 48.4582 33.1421 48.2432C33.1421 48.0281 33.2275 47.8219 33.3796 47.6699C33.5316 47.5178 33.7379 47.4324 33.9529 47.4324H35.4391C35.6542 47.4324 35.8604 47.5178 36.0124 47.6699C36.1645 47.8219 36.2499 48.0281 36.2499 48.2432C36.2499 48.4582 36.1645 48.6645 36.0124 48.8165C35.8604 48.9686 35.6542 49.054 35.4391 49.054Z" fill="#252525"/>
<path d="M26.0475 49.054H24.5613C24.3463 49.054 24.14 48.9686 23.988 48.8165C23.8359 48.6645 23.7505 48.4582 23.7505 48.2432C23.7505 48.0281 23.8359 47.8219 23.988 47.6699C24.14 47.5178 24.3463 47.4324 24.5613 47.4324H26.0475C26.2626 47.4324 26.4688 47.5178 26.6208 47.6699C26.7729 47.8219 26.8583 48.0281 26.8583 48.2432C26.8583 48.4582 26.7729 48.6645 26.6208 48.8165C26.4688 48.9686 26.2626 49.054 26.0475 49.054Z" fill="#252525"/>
<path d="M35.4391 39.5953H33.9529C33.7379 39.5953 33.5316 39.5098 33.3796 39.3578C33.2275 39.2057 33.1421 38.9995 33.1421 38.7844C33.1421 38.5694 33.2275 38.3632 33.3796 38.2111C33.5316 38.0591 33.7379 37.9736 33.9529 37.9736H35.4391C35.6542 37.9736 35.8604 38.0591 36.0124 38.2111C36.1645 38.3632 36.2499 38.5694 36.2499 38.7844C36.2499 38.9995 36.1645 39.2057 36.0124 39.3578C35.8604 39.5098 35.6542 39.5953 35.4391 39.5953Z" fill="#252525"/>
<path d="M26.0475 39.5953H24.5613C24.3463 39.5953 24.14 39.5098 23.988 39.3578C23.8359 39.2057 23.7505 38.9995 23.7505 38.7844C23.7505 38.5694 23.8359 38.3632 23.988 38.2111C24.14 38.0591 24.3463 37.9736 24.5613 37.9736H26.0475C26.2626 37.9736 26.4688 38.0591 26.6208 38.2111C26.7729 38.3632 26.8583 38.5694 26.8583 38.7844C26.8583 38.9995 26.7729 39.2057 26.6208 39.3578C26.4688 39.5098 26.2626 39.5953 26.0475 39.5953Z" fill="#252525"/>
<path d="M35.4391 30.1346H33.9529C33.7379 30.1346 33.5316 30.0491 33.3796 29.8971C33.2275 29.745 33.1421 29.5388 33.1421 29.3238C33.1421 29.1087 33.2275 28.9025 33.3796 28.7504C33.5316 28.5984 33.7379 28.5129 33.9529 28.5129H35.4391C35.6542 28.5129 35.8604 28.5984 36.0124 28.7504C36.1645 28.9025 36.2499 29.1087 36.2499 29.3238C36.2499 29.5388 36.1645 29.745 36.0124 29.8971C35.8604 30.0491 35.6542 30.1346 35.4391 30.1346Z" fill="#252525"/>
<path d="M26.0475 30.1346H24.5613C24.3463 30.1346 24.14 30.0491 23.988 29.8971C23.8359 29.745 23.7505 29.5388 23.7505 29.3238C23.7505 29.1087 23.8359 28.9025 23.988 28.7504C24.14 28.5984 24.3463 28.5129 24.5613 28.5129H26.0475C26.2626 28.5129 26.4688 28.5984 26.6208 28.7504C26.7729 28.9025 26.8583 29.1087 26.8583 29.3238C26.8583 29.5388 26.7729 29.745 26.6208 29.8971C26.4688 30.0491 26.2626 30.1346 26.0475 30.1346Z" fill="#252525"/>
<path d="M35.4391 20.6756H33.9529C33.7379 20.6756 33.5316 20.5902 33.3796 20.4381C33.2275 20.286 33.1421 20.0798 33.1421 19.8648C33.1421 19.6497 33.2275 19.4435 33.3796 19.2914C33.5316 19.1394 33.7379 19.054 33.9529 19.054H35.4391C35.6542 19.054 35.8604 19.1394 36.0124 19.2914C36.1645 19.4435 36.2499 19.6497 36.2499 19.8648C36.2499 20.0798 36.1645 20.286 36.0124 20.4381C35.8604 20.5902 35.6542 20.6756 35.4391 20.6756Z" fill="#252525"/>
<path d="M26.0475 20.6756H24.5613C24.3463 20.6756 24.14 20.5902 23.988 20.4381C23.8359 20.286 23.7505 20.0798 23.7505 19.8648C23.7505 19.6497 23.8359 19.4435 23.988 19.2914C24.14 19.1394 24.3463 19.054 24.5613 19.054H26.0475C26.2626 19.054 26.4688 19.1394 26.6208 19.2914C26.7729 19.4435 26.8583 19.6497 26.8583 19.8648C26.8583 20.0798 26.7729 20.286 26.6208 20.4381C26.4688 20.5902 26.2626 20.6756 26.0475 20.6756Z" fill="#252525"/>
<path d="M49.2065 32.0271H47.2298C47.0147 32.0271 46.8085 31.9417 46.6564 31.7897C46.5044 31.6376 46.4189 31.4314 46.4189 31.2163C46.4189 31.0013 46.5044 30.7951 46.6564 30.643C46.8085 30.4909 47.0147 30.4055 47.2298 30.4055H49.2065C49.4216 30.4055 49.6278 30.4909 49.7798 30.643C49.9319 30.7951 50.0173 31.0013 50.0173 31.2163C50.0173 31.4314 49.9319 31.6376 49.7798 31.7897C49.6278 31.9417 49.4216 32.0271 49.2065 32.0271Z" fill="#252525"/>
<path d="M49.2065 38.284H47.2298C47.0147 38.284 46.8085 38.1986 46.6564 38.0465C46.5044 37.8944 46.4189 37.6882 46.4189 37.4732C46.4189 37.2581 46.5044 37.0519 46.6564 36.8998C46.8085 36.7478 47.0147 36.6624 47.2298 36.6624H49.2065C49.4216 36.6624 49.6278 36.7478 49.7798 36.8998C49.9319 37.0519 50.0173 37.2581 50.0173 37.4732C50.0173 37.6882 49.9319 37.8944 49.7798 38.0465C49.6278 38.1986 49.4216 38.284 49.2065 38.284Z" fill="#252525"/>
<path d="M49.2065 44.5418H47.2298C47.0147 44.5418 46.8085 44.4564 46.6564 44.3043C46.5044 44.1522 46.4189 43.946 46.4189 43.731C46.4189 43.5159 46.5044 43.3097 46.6564 43.1576C46.8085 43.0056 47.0147 42.9202 47.2298 42.9202H49.2065C49.4216 42.9202 49.6278 43.0056 49.7798 43.1576C49.9319 43.3097 50.0173 43.5159 50.0173 43.731C50.0173 43.946 49.9319 44.1522 49.7798 44.3043C49.6278 44.4564 49.4216 44.5418 49.2065 44.5418Z" fill="#252525"/>
<path d="M49.2065 50.7989H47.2298C47.0147 50.7989 46.8085 50.7134 46.6564 50.5614C46.5044 50.4093 46.4189 50.2031 46.4189 49.9881C46.4189 49.773 46.5044 49.5668 46.6564 49.4147C46.8085 49.2627 47.0147 49.1772 47.2298 49.1772H49.2065C49.4216 49.1772 49.6278 49.2627 49.7798 49.4147C49.9319 49.5668 50.0173 49.773 50.0173 49.9881C50.0173 50.2031 49.9319 50.4093 49.7798 50.5614C49.6278 50.7134 49.4216 50.7989 49.2065 50.7989Z" fill="#252525"/>
<path d="M12.7705 32.0271H10.7937C10.5787 32.0271 10.3724 31.9417 10.2204 31.7897C10.0683 31.6376 9.98291 31.4314 9.98291 31.2163C9.98291 31.0013 10.0683 30.7951 10.2204 30.643C10.3724 30.4909 10.5787 30.4055 10.7937 30.4055H12.7705C12.9855 30.4055 13.1918 30.4909 13.3438 30.643C13.4959 30.7951 13.5813 31.0013 13.5813 31.2163C13.5813 31.4314 13.4959 31.6376 13.3438 31.7897C13.1918 31.9417 12.9855 32.0271 12.7705 32.0271Z" fill="#252525"/>
<path d="M12.7705 38.284H10.7937C10.5787 38.284 10.3724 38.1986 10.2204 38.0465C10.0683 37.8944 9.98291 37.6882 9.98291 37.4732C9.98291 37.2581 10.0683 37.0519 10.2204 36.8998C10.3724 36.7478 10.5787 36.6624 10.7937 36.6624H12.7705C12.9855 36.6624 13.1918 36.7478 13.3438 36.8998C13.4959 37.0519 13.5813 37.2581 13.5813 37.4732C13.5813 37.6882 13.4959 37.8944 13.3438 38.0465C13.1918 38.1986 12.9855 38.284 12.7705 38.284Z" fill="#252525"/>
<path d="M12.7705 44.5418H10.7937C10.5787 44.5418 10.3724 44.4564 10.2204 44.3043C10.0683 44.1522 9.98291 43.946 9.98291 43.731C9.98291 43.5159 10.0683 43.3097 10.2204 43.1576C10.3724 43.0056 10.5787 42.9202 10.7937 42.9202H12.7705C12.9855 42.9202 13.1918 43.0056 13.3438 43.1576C13.4959 43.3097 13.5813 43.5159 13.5813 43.731C13.5813 43.946 13.4959 44.1522 13.3438 44.3043C13.1918 44.4564 12.9855 44.5418 12.7705 44.5418Z" fill="#252525"/>
<path d="M12.7705 50.7989H10.7937C10.5787 50.7989 10.3724 50.7134 10.2204 50.5614C10.0683 50.4093 9.98291 50.2031 9.98291 49.9881C9.98291 49.773 10.0683 49.5668 10.2204 49.4147C10.3724 49.2627 10.5787 49.1772 10.7937 49.1772H12.7705C12.9855 49.1772 13.1918 49.2627 13.3438 49.4147C13.4959 49.5668 13.5813 49.773 13.5813 49.9881C13.5813 50.2031 13.4959 50.4093 13.3438 50.5614C13.1918 50.7134 12.9855 50.7989 12.7705 50.7989Z" fill="#252525"/>
</svg>
