<svg width="20" height="24" viewBox="0 0 20 24" fill="none" xmlns="http://www.w3.org/2000/svg">
<path d="M16.6981 4.43771H11.4154L13.2192 1.23722C13.4456 0.840539 13.3076 0.335355 12.9109 0.108939C12.5142 -0.117525 12.009 0.0204999 11.7826 0.417186C11.7811 0.41981 11.7796 0.422388 11.7782 0.425012L9.99984 3.58013L8.2215 0.425012C7.99724 0.0271082 7.49285 -0.113635 7.09495 0.110626C6.69704 0.334886 6.55625 0.83932 6.78051 1.23722L8.58435 4.43771H3.30164C1.59979 4.43963 0.220625 5.81879 0.21875 7.52064V20.9171C0.220718 22.6189 1.59984 23.998 3.30164 24H16.6981C18.3999 23.998 19.779 22.6189 19.781 20.9171V7.52069C19.7791 5.81884 18.3999 4.43967 16.6981 4.43771ZM18.1269 20.9171C18.126 21.7059 17.4868 22.345 16.6981 22.3459H3.30164C2.51291 22.345 1.87373 21.7059 1.87284 20.9171V7.52069C1.87368 6.73196 2.51286 6.09273 3.30164 6.09184H9.99909H10.0006H16.6981C17.4868 6.09273 18.126 6.73196 18.1269 7.52069V20.9171Z" fill="#FF312C"/>
<path d="M14.1544 12.6957L10.8267 14.1472V13.0277C10.8268 12.5709 10.4565 12.2005 9.99976 12.2004C9.88587 12.2004 9.7732 12.2239 9.66878 12.2695L5.18343 14.226C4.76514 14.4096 4.57485 14.8975 4.75839 15.3157C4.94136 15.7327 5.42695 15.9234 5.84473 15.7422L9.17255 14.2906V15.4102C9.1725 15.8669 9.54275 16.2373 9.99952 16.2373C10.1134 16.2373 10.2261 16.2138 10.3305 16.1683L14.8158 14.2117C15.2346 14.0291 15.4259 13.5416 15.2433 13.123C15.0607 12.7043 14.5733 12.5129 14.1546 12.6955L14.1544 12.6957Z" fill="#FF312C"/>
</svg>
