<svg width="100" height="100" viewBox="0 0 100 100" fill="none" xmlns="http://www.w3.org/2000/svg">
<g clip-path="url(#clip0_905_770)">
<path d="M60.1289 31.7779C60.1289 31.7779 61.3709 32.2979 61.8249 33.6039C61.8249 33.6039 61.6889 31.5499 62.6429 30.7319C62.6429 30.7319 61.7809 31.4139 61.5989 32.4119C61.5969 32.4119 61.1129 31.9159 60.1289 31.7779Z" fill="#263238"/>
<path d="M55.9009 26.624C55.9009 26.624 57.4809 27.852 57.9129 28.984C57.9129 28.984 58.1549 27.768 59.2989 27.406C59.2989 27.406 58.4729 27.342 57.9129 28.11C57.9129 28.11 57.3129 27.12 55.9009 26.624Z" fill="#263238"/>
<path d="M54.2129 31.966C54.2129 31.966 55.5089 31.76 56.1269 32.554C56.1269 32.554 55.7449 31.376 56.1269 30.582C56.1269 30.582 55.6169 30.91 55.7929 32.092C55.7929 32.092 55.3009 31.584 54.2129 31.966Z" fill="#263238"/>
<path d="M100.385 75.48H0.384766V75.53H100.385V75.48Z" fill="#EBEBEB"/>
<path d="M27.917 76.842H21.293V76.892H27.917V76.842Z" fill="#EBEBEB"/>
<path d="M42.7628 78.6741H34.6128V78.7241H42.7628V78.6741Z" fill="#EBEBEB"/>
<path d="M21.093 78.0481H10.877V78.0981H21.093V78.0481Z" fill="#EBEBEB"/>
<path d="M90.3648 77.178H71.7368V77.228H90.3648V77.178Z" fill="#EBEBEB"/>
<path d="M64.2727 78.022H55.8267V78.072H64.2727V78.022Z" fill="#EBEBEB"/>
<path d="M47.7849 66.56H9.16686C8.53686 66.558 8.02686 66.048 8.02686 65.418V11.132C8.03286 10.506 8.54086 10.002 9.16686 10H47.7849C48.4149 10 48.9269 10.512 48.9269 11.142V65.418C48.9269 66.048 48.4149 66.56 47.7849 66.56ZM9.16686 10.04C8.56486 10.042 8.07686 10.53 8.07686 11.132V65.418C8.07686 66.02 8.56486 66.508 9.16686 66.51H47.7849C48.3869 66.508 48.8749 66.02 48.8769 65.418V11.132C48.8749 10.53 48.3869 10.042 47.7849 10.04H9.16686Z" fill="#EBEBEB"/>
<path d="M91.0467 66.56H52.4267C51.7967 66.558 51.2867 66.048 51.2847 65.418V11.132C51.2907 10.506 51.8007 10.002 52.4267 10H91.0467C91.6727 10.002 92.1787 10.506 92.1847 11.132V65.418C92.1847 66.048 91.6767 66.558 91.0467 66.56ZM52.4267 10.04C51.8247 10.042 51.3367 10.53 51.3347 11.132V65.418C51.3367 66.02 51.8247 66.508 52.4267 66.51H91.0467C91.6487 66.508 92.1367 66.02 92.1387 65.418V11.132C92.1367 10.53 91.6487 10.042 91.0467 10.04H52.4267Z" fill="#EBEBEB"/>
<path d="M43.3286 20.6501H59.3386C59.3386 20.6501 58.3686 19.1261 56.7046 19.8881C56.7046 19.8881 56.3926 18.2941 55.3186 18.2601C54.2446 18.2261 53.8626 19.0581 53.8626 19.0581C53.8626 19.0581 52.6146 17.1181 50.7086 17.5341C48.8026 17.9501 48.6286 19.7181 48.6286 19.7181C48.6286 19.7181 45.7906 18.2601 43.3286 20.6501Z" fill="#FAFAFA"/>
<path d="M14.0649 42.9421H30.0749C30.0749 42.9421 29.1049 41.4181 27.4409 42.1801C27.4409 42.1801 27.1289 40.5861 26.0549 40.5521C24.9809 40.5181 24.5989 41.3501 24.5989 41.3501C24.5989 41.3501 23.3509 39.4101 21.4449 39.8261C19.5389 40.2421 19.3649 42.0101 19.3649 42.0101C19.3649 42.0101 16.5249 40.5501 14.0649 42.9421Z" fill="#FAFAFA"/>
<path d="M74.8945 32.162H90.9045C90.9045 32.162 89.9345 30.638 88.2705 31.4C88.2705 31.4 87.9585 29.806 86.8845 29.772C85.8105 29.738 85.4285 30.57 85.4285 30.57C85.4285 30.57 84.1805 28.63 82.2745 29.046C80.3685 29.462 80.1945 31.23 80.1945 31.23C80.1945 31.23 77.3545 29.772 74.8945 32.162Z" fill="#FAFAFA"/>
<path d="M73.9111 22.6443C74.1177 21.7726 73.5785 20.8985 72.7068 20.6919C71.8351 20.4853 70.961 21.0245 70.7544 21.8962C70.5478 22.7679 71.087 23.6421 71.9587 23.8486C72.8304 24.0552 73.7046 23.516 73.9111 22.6443Z" fill="#F0F0F0"/>
<path d="M12.5347 32.162H28.5447C28.5447 32.162 27.5747 30.638 25.9107 31.4C25.9107 31.4 25.5987 29.806 24.5247 29.772C23.4507 29.738 23.0687 30.57 23.0687 30.57C23.0687 30.57 21.8207 28.63 19.9147 29.046C18.0087 29.462 17.8347 31.23 17.8347 31.23C17.8347 31.23 14.9947 29.772 12.5347 32.162Z" fill="#FAFAFA"/>
<path d="M40.0229 37.0142H23.0469V70.1442H40.0229V37.0142Z" fill="#E6E6E6"/>
<path d="M36.9369 37.0142H23.0469V70.1442H36.9369V37.0142Z" fill="#F0F0F0"/>
<path d="M40.2227 37.0142H22.6807V37.5542H40.2227V37.0142Z" fill="#E0E0E0"/>
<path d="M40.2227 35.9321H22.6807V36.4721H40.2227V35.9321Z" fill="#E0E0E0"/>
<path d="M39.8549 36.4722H23.0469V37.0122H39.8549V36.4722Z" fill="#F0F0F0"/>
<path d="M26.9727 38.9641H24.3647V41.5721H26.9727V38.9641Z" fill="#E6E6E6"/>
<path d="M26.9727 38.9641H24.5947V41.5721H26.9727V38.9641Z" fill="#F5F5F5"/>
<path d="M30.9249 38.9641H28.3169V41.5721H30.9249V38.9641Z" fill="#E6E6E6"/>
<path d="M30.9249 38.9641H28.5469V41.5721H30.9249V38.9641Z" fill="#F5F5F5"/>
<path d="M34.8746 38.9641H32.2666V41.5721H34.8746V38.9641Z" fill="#E6E6E6"/>
<path d="M34.8746 38.9641H32.4966V41.5721H34.8746V38.9641Z" fill="#F5F5F5"/>
<path d="M26.9727 42.8062H24.3647V45.4142H26.9727V42.8062Z" fill="#E6E6E6"/>
<path d="M26.9727 42.8062H24.5947V45.4142H26.9727V42.8062Z" fill="#F5F5F5"/>
<path d="M30.9249 42.8062H28.3169V45.4142H30.9249V42.8062Z" fill="#E6E6E6"/>
<path d="M30.9249 42.8062H28.5469V45.4142H30.9249V42.8062Z" fill="#F5F5F5"/>
<path d="M34.8746 42.8062H32.2666V45.4142H34.8746V42.8062Z" fill="#E6E6E6"/>
<path d="M34.8746 42.8062H32.4966V45.4142H34.8746V42.8062Z" fill="#F5F5F5"/>
<path d="M26.9727 49.8401H24.3647V52.4481H26.9727V49.8401Z" fill="#E6E6E6"/>
<path d="M26.9727 49.8401H24.5947V52.4481H26.9727V49.8401Z" fill="#F5F5F5"/>
<path d="M30.9249 49.8401H28.3169V52.4481H30.9249V49.8401Z" fill="#E6E6E6"/>
<path d="M30.9249 49.8401H28.5469V52.4481H30.9249V49.8401Z" fill="#F5F5F5"/>
<path d="M34.8746 49.8401H32.2666V52.4481H34.8746V49.8401Z" fill="#E6E6E6"/>
<path d="M34.8746 49.8401H32.4966V52.4481H34.8746V49.8401Z" fill="#F5F5F5"/>
<path d="M26.9727 53.6821H24.3647V56.2901H26.9727V53.6821Z" fill="#E6E6E6"/>
<path d="M26.9727 53.6821H24.5947V56.2901H26.9727V53.6821Z" fill="#F5F5F5"/>
<path d="M30.9249 53.6821H28.3169V56.2901H30.9249V53.6821Z" fill="#E6E6E6"/>
<path d="M30.9249 53.6821H28.5469V56.2901H30.9249V53.6821Z" fill="#F5F5F5"/>
<path d="M34.8746 53.6821H32.2666V56.2901H34.8746V53.6821Z" fill="#E6E6E6"/>
<path d="M34.8746 53.6821H32.4966V56.2901H34.8746V53.6821Z" fill="#F5F5F5"/>
<path d="M26.9727 61.5002H24.3647V64.1082H26.9727V61.5002Z" fill="#E6E6E6"/>
<path d="M26.9727 61.5002H24.5947V64.1082H26.9727V61.5002Z" fill="#F5F5F5"/>
<path d="M30.9249 61.5002H28.3169V64.1082H30.9249V61.5002Z" fill="#E6E6E6"/>
<path d="M30.9249 61.5002H28.5469V64.1082H30.9249V61.5002Z" fill="#F5F5F5"/>
<path d="M34.8746 61.5002H32.2666V64.1082H34.8746V61.5002Z" fill="#E6E6E6"/>
<path d="M34.8746 61.5002H32.4966V64.1082H34.8746V61.5002Z" fill="#F5F5F5"/>
<path d="M26.9727 65.342H24.3647V67.95H26.9727V65.342Z" fill="#E6E6E6"/>
<path d="M26.9727 65.342H24.5947V67.95H26.9727V65.342Z" fill="#F5F5F5"/>
<path d="M30.9249 65.342H28.3169V67.95H30.9249V65.342Z" fill="#E6E6E6"/>
<path d="M30.9249 65.342H28.5469V67.95H30.9249V65.342Z" fill="#F5F5F5"/>
<path d="M34.8746 65.342H32.2666V67.95H34.8746V65.342Z" fill="#E6E6E6"/>
<path d="M34.8746 65.342H32.4966V67.95H34.8746V65.342Z" fill="#F5F5F5"/>
<path d="M40.0229 47.248H23.0469V47.49H40.0229V47.248Z" fill="#E0E0E0"/>
<path d="M40.0229 59.2742H23.0469V59.5162H40.0229V59.2742Z" fill="#E0E0E0"/>
<path d="M20.181 46.9341H8.43896V75.5061H20.181V46.9341Z" fill="#E0E0E0"/>
<path d="M16.837 46.9341H8.43896V75.5061H16.837V46.9341Z" fill="#F0F0F0"/>
<path d="M12.4287 49.2822H9.30273V50.8002H12.4287V49.2822Z" fill="#E6E6E6"/>
<path d="M12.4287 49.2822H9.51074V50.8002H12.4287V49.2822Z" fill="#F5F5F5"/>
<path d="M16.0449 49.2822H12.9189V50.8002H16.0449V49.2822Z" fill="#E6E6E6"/>
<path d="M16.043 49.2822H13.127V50.8002H16.043V49.2822Z" fill="#F5F5F5"/>
<path d="M12.4287 52.1382H9.30273V53.6562H12.4287V52.1382Z" fill="#E6E6E6"/>
<path d="M12.4287 52.1382H9.51074V53.6562H12.4287V52.1382Z" fill="#F5F5F5"/>
<path d="M16.0449 52.1382H12.9189V53.6562H16.0449V52.1382Z" fill="#E6E6E6"/>
<path d="M16.043 52.1382H13.127V53.6562H16.043V52.1382Z" fill="#F5F5F5"/>
<path d="M12.4287 55.7881H9.30273V57.3061H12.4287V55.7881Z" fill="#E6E6E6"/>
<path d="M12.4287 55.7881H9.51074V57.3061H12.4287V55.7881Z" fill="#F5F5F5"/>
<path d="M16.0449 55.7881H12.9189V57.3061H16.0449V55.7881Z" fill="#E6E6E6"/>
<path d="M16.043 55.7881H13.127V57.3061H16.043V55.7881Z" fill="#F5F5F5"/>
<path d="M12.4287 57.884H9.30273V59.402H12.4287V57.884Z" fill="#E6E6E6"/>
<path d="M12.4287 57.884H9.51074V59.402H12.4287V57.884Z" fill="#F5F5F5"/>
<path d="M16.0449 57.884H12.9189V59.402H16.0449V57.884Z" fill="#E6E6E6"/>
<path d="M16.043 57.884H13.127V59.402H16.043V57.884Z" fill="#F5F5F5"/>
<path d="M12.4287 61.3301H9.30273V62.8481H12.4287V61.3301Z" fill="#E6E6E6"/>
<path d="M12.4287 61.3301H9.51074V62.8481H12.4287V61.3301Z" fill="#F5F5F5"/>
<path d="M16.0449 61.3301H12.9189V62.8481H16.0449V61.3301Z" fill="#E6E6E6"/>
<path d="M16.043 61.3301H13.127V62.8481H16.043V61.3301Z" fill="#F5F5F5"/>
<path d="M12.4287 63.426H9.30273V64.944H12.4287V63.426Z" fill="#E6E6E6"/>
<path d="M12.4287 63.426H9.51074V64.944H12.4287V63.426Z" fill="#F5F5F5"/>
<path d="M16.0449 63.426H12.9189V64.944H16.0449V63.426Z" fill="#E6E6E6"/>
<path d="M16.043 63.426H13.127V64.944H16.043V63.426Z" fill="#F5F5F5"/>
<path d="M12.4287 67.176H9.30273V68.694H12.4287V67.176Z" fill="#E6E6E6"/>
<path d="M12.4287 67.176H9.51074V68.694H12.4287V67.176Z" fill="#F5F5F5"/>
<path d="M16.0449 67.176H12.9189V68.694H16.0449V67.176Z" fill="#E6E6E6"/>
<path d="M16.043 67.176H13.127V68.694H16.043V67.176Z" fill="#F5F5F5"/>
<path d="M12.4287 69.9441H9.30273V71.4621H12.4287V69.9441Z" fill="#E6E6E6"/>
<path d="M12.4287 69.9441H9.51074V71.4621H12.4287V69.9441Z" fill="#F5F5F5"/>
<path d="M16.0449 69.9441H12.9189V71.4621H16.0449V69.9441Z" fill="#E6E6E6"/>
<path d="M16.043 69.9441H13.127V71.4621H16.043V69.9441Z" fill="#F5F5F5"/>
<path opacity="0.05" d="M20.181 54.5901H8.43896V54.8501H20.181V54.5901Z" fill="black"/>
<path opacity="0.05" d="M20.181 60.2341H8.43896V60.4941H20.181V60.2341Z" fill="black"/>
<path opacity="0.05" d="M20.181 65.9282H8.43896V66.1882H20.181V65.9282Z" fill="black"/>
<path d="M20.1788 46.0881H7.88477V47.0001H20.1788V46.0881Z" fill="#E0E0E0"/>
<path opacity="0.05" d="M20.1806 46.0881H17.3706V47.0001H20.1806V46.0881Z" fill="black"/>
<path d="M60.8271 32.052H47.0391V67.886H60.8271V32.052Z" fill="#E6E6E6"/>
<path d="M55.7231 32.052H41.9351V67.886H55.7231V32.052Z" fill="#F0F0F0"/>
<path d="M54.5212 34.4841H43.1392V36.3101H54.5212V34.4841Z" fill="#E6E6E6"/>
<path d="M54.5191 34.4841H43.5791V36.3101H54.5191V34.4841Z" fill="#F5F5F5"/>
<path d="M54.5212 37.5581H43.1392V39.3841H54.5212V37.5581Z" fill="#E6E6E6"/>
<path d="M54.5191 37.5581H43.5791V39.3841H54.5191V37.5581Z" fill="#F5F5F5"/>
<path d="M54.5212 40.75H43.1392V42.576H54.5212V40.75Z" fill="#E6E6E6"/>
<path d="M54.5191 40.75H43.5791V42.576H54.5191V40.75Z" fill="#F5F5F5"/>
<path d="M54.5212 43.9441H43.1392V45.7701H54.5212V43.9441Z" fill="#E6E6E6"/>
<path d="M54.5191 43.9441H43.5791V45.7701H54.5191V43.9441Z" fill="#F5F5F5"/>
<path d="M54.5212 47.136H43.1392V48.962H54.5212V47.136Z" fill="#E6E6E6"/>
<path d="M54.5191 47.136H43.5791V48.962H54.5191V47.136Z" fill="#F5F5F5"/>
<path d="M54.5212 50.3301H43.1392V52.1561H54.5212V50.3301Z" fill="#E6E6E6"/>
<path d="M54.5191 50.3301H43.5791V52.1561H54.5191V50.3301Z" fill="#F5F5F5"/>
<path d="M54.5212 53.8479H43.1392V55.6739H54.5212V53.8479Z" fill="#E6E6E6"/>
<path d="M54.5191 53.8479H43.5791V55.6739H54.5191V53.8479Z" fill="#F5F5F5"/>
<path d="M54.5212 57.3679H43.1392V59.1939H54.5212V57.3679Z" fill="#E6E6E6"/>
<path d="M54.5191 57.3679H43.5791V59.1939H54.5191V57.3679Z" fill="#F5F5F5"/>
<path d="M54.5212 60.8879H43.1392V62.7139H54.5212V60.8879Z" fill="#E6E6E6"/>
<path d="M54.5191 60.8879H43.5791V62.7139H54.5191V60.8879Z" fill="#F5F5F5"/>
<path d="M54.5212 64.406H43.1392V66.232H54.5212V64.406Z" fill="#E6E6E6"/>
<path d="M54.5191 64.406H43.5791V66.232H54.5191V64.406Z" fill="#F5F5F5"/>
<path d="M61.1849 31.6919H41.5449V32.5659H61.1849V31.6919Z" fill="#E0E0E0"/>
<path d="M61.1849 30.114H41.5449V30.988H61.1849V30.114Z" fill="#E0E0E0"/>
<path d="M60.5331 30.8159H41.9351V31.6899H60.5331V30.8159Z" fill="#F0F0F0"/>
<path d="M60.8269 34.4841H56.9849V36.3101H60.8269V34.4841Z" fill="#E0E0E0"/>
<path d="M60.8269 37.488H56.9849V39.314H60.8269V37.488Z" fill="#E0E0E0"/>
<path d="M60.8269 40.4939H56.9849V42.3199H60.8269V40.4939Z" fill="#E0E0E0"/>
<path d="M60.8269 43.9419H56.9849V45.7679H60.8269V43.9419Z" fill="#E0E0E0"/>
<path d="M60.8269 47.136H56.9849V48.962H60.8269V47.136Z" fill="#E0E0E0"/>
<path d="M60.8269 50.3301H56.9849V52.1561H60.8269V50.3301Z" fill="#E0E0E0"/>
<path d="M60.8269 53.8479H56.9849V55.6739H60.8269V53.8479Z" fill="#E0E0E0"/>
<path d="M60.8269 57.3679H56.9849V59.1939H60.8269V57.3679Z" fill="#E0E0E0"/>
<path d="M60.8269 60.886H56.9849V62.712H60.8269V60.886Z" fill="#E0E0E0"/>
<path d="M60.8269 64.406H56.9849V66.232H60.8269V64.406Z" fill="#E0E0E0"/>
<path d="M92.0347 59.5381H90.9287V61.2681H92.0347V59.5381Z" fill="#E0E0E0"/>
<path d="M92.0347 62.3701H90.9287V64.1001H92.0347V62.3701Z" fill="#E0E0E0"/>
<path d="M92.0347 65.1201H90.9287V66.8501H92.0347V65.1201Z" fill="#E0E0E0"/>
<path d="M92.0347 68.03H90.9287V69.76H92.0347V68.03Z" fill="#E0E0E0"/>
<path d="M92.0347 70.8601H90.9287V72.5901H92.0347V70.8601Z" fill="#E0E0E0"/>
<path d="M92.0349 57.8H80.4009V75.494H92.0349V57.8Z" fill="#E6E6E6"/>
<path d="M90.0708 57.8H80.4028V75.494H90.0708V57.8Z" fill="#F0F0F0"/>
<path d="M89.1349 59.5381H81.2729V61.2681H89.1349V59.5381Z" fill="#EBEBEB"/>
<path d="M89.1349 62.3701H81.2729V64.1001H89.1349V62.3701Z" fill="#EBEBEB"/>
<path d="M89.1349 65.2H81.2729V66.9299H89.1349V65.2Z" fill="#EBEBEB"/>
<path d="M89.1349 68.03H81.2729V69.76H89.1349V68.03Z" fill="#EBEBEB"/>
<path d="M89.1349 70.8601H81.2729V72.5901H89.1349V70.8601Z" fill="#EBEBEB"/>
<path d="M89.133 59.5381H81.561V61.2681H89.133V59.5381Z" fill="#F5F5F5"/>
<path d="M89.133 62.3701H81.561V64.1001H89.133V62.3701Z" fill="#F5F5F5"/>
<path d="M89.133 65.2002H81.561V66.9302H89.133V65.2002Z" fill="#F5F5F5"/>
<path d="M89.133 68.03H81.561V69.76H89.133V68.03Z" fill="#F5F5F5"/>
<path d="M89.133 70.8601H81.561V72.5901H89.133V70.8601Z" fill="#F5F5F5"/>
<path d="M43.683 42.9041H23.877V81.556H43.683V42.9041Z" fill="#23A9B1"/>
<path opacity="0.4" d="M40.083 42.9041H23.877V81.556H40.083V42.9041Z" fill="white"/>
<path d="M43.9167 42.9041H23.4507V43.5341H43.9167V42.9041Z" fill="#23A9B1"/>
<path d="M43.9167 41.6421H23.4507V42.2741H43.9167V41.6421Z" fill="#23A9B1"/>
<path d="M43.487 42.2739H23.877V42.9039H43.487V42.2739Z" fill="#F0F0F0"/>
<path d="M28.4585 45.1799H25.4146V48.2239H28.4585V45.1799Z" fill="#23A9B1"/>
<path opacity="0.2" d="M28.4586 45.1799H25.6826V48.2239H28.4586V45.1799Z" fill="white"/>
<path d="M33.0689 45.1799H30.0249V48.2239H33.0689V45.1799Z" fill="#23A9B1"/>
<path opacity="0.2" d="M33.069 45.1799H30.293V48.2239H33.069V45.1799Z" fill="white"/>
<path d="M37.6768 45.1799H34.6328V48.2239H37.6768V45.1799Z" fill="#23A9B1"/>
<path opacity="0.2" d="M37.6769 45.1799H34.9009V48.2239H37.6769V45.1799Z" fill="white"/>
<path d="M28.4585 49.6621H25.4146V52.7061H28.4585V49.6621Z" fill="#23A9B1"/>
<path opacity="0.2" d="M28.4586 49.6621H25.6826V52.7061H28.4586V49.6621Z" fill="white"/>
<path d="M33.0689 49.6621H30.0249V52.7061H33.0689V49.6621Z" fill="#23A9B1"/>
<path opacity="0.2" d="M33.069 49.6621H30.293V52.7061H33.069V49.6621Z" fill="white"/>
<path d="M37.6768 49.6621H34.6328V52.7061H37.6768V49.6621Z" fill="#23A9B1"/>
<path opacity="0.2" d="M37.6769 49.6621H34.9009V52.7061H37.6769V49.6621Z" fill="white"/>
<path d="M28.4585 57.8701H25.4146V60.9141H28.4585V57.8701Z" fill="#23A9B1"/>
<path opacity="0.2" d="M28.4586 57.8701H25.6826V60.9141H28.4586V57.8701Z" fill="white"/>
<path d="M33.0689 57.8701H30.0249V60.9141H33.0689V57.8701Z" fill="#23A9B1"/>
<path opacity="0.2" d="M33.069 57.8701H30.293V60.9141H33.069V57.8701Z" fill="white"/>
<path d="M37.6768 57.8701H34.6328V60.9141H37.6768V57.8701Z" fill="#23A9B1"/>
<path opacity="0.2" d="M37.6769 57.8701H34.9009V60.9141H37.6769V57.8701Z" fill="white"/>
<path d="M28.4585 62.3501H25.4146V65.3941H28.4585V62.3501Z" fill="#23A9B1"/>
<path opacity="0.2" d="M28.4586 62.3501H25.6826V65.3941H28.4586V62.3501Z" fill="white"/>
<path d="M33.0689 62.3501H30.0249V65.3941H33.0689V62.3501Z" fill="#23A9B1"/>
<path opacity="0.2" d="M33.069 62.3501H30.293V65.3941H33.069V62.3501Z" fill="white"/>
<path d="M37.6768 62.3501H34.6328V65.3941H37.6768V62.3501Z" fill="#23A9B1"/>
<path opacity="0.2" d="M37.6769 62.3501H34.9009V65.3941H37.6769V62.3501Z" fill="white"/>
<path d="M28.4585 71.4719H25.4146V74.5159H28.4585V71.4719Z" fill="#23A9B1"/>
<path opacity="0.2" d="M28.4586 71.4719H25.6826V74.5159H28.4586V71.4719Z" fill="white"/>
<path d="M33.0689 71.4719H30.0249V74.5159H33.0689V71.4719Z" fill="#23A9B1"/>
<path opacity="0.2" d="M33.069 71.4719H30.293V74.5159H33.069V71.4719Z" fill="white"/>
<path d="M37.6768 71.4719H34.6328V74.5159H37.6768V71.4719Z" fill="#23A9B1"/>
<path opacity="0.2" d="M37.6769 71.4719H34.9009V74.5159H37.6769V71.4719Z" fill="white"/>
<path d="M28.4585 75.9541H25.4146V78.9981H28.4585V75.9541Z" fill="#23A9B1"/>
<path opacity="0.2" d="M28.4586 75.9541H25.6826V78.9981H28.4586V75.9541Z" fill="white"/>
<path d="M33.0689 75.9541H30.0249V78.9981H33.0689V75.9541Z" fill="#23A9B1"/>
<path opacity="0.2" d="M33.069 75.9541H30.293V78.9981H33.069V75.9541Z" fill="white"/>
<path d="M37.6768 75.9541H34.6328V78.9981H37.6768V75.9541Z" fill="#23A9B1"/>
<path opacity="0.2" d="M37.6769 75.9541H34.9009V78.9981H37.6769V75.9541Z" fill="white"/>
<path opacity="0.2" d="M43.683 54.8459H23.877V55.1279H43.683V54.8459Z" fill="white"/>
<path opacity="0.2" d="M43.683 68.874H23.877V69.156H43.683V68.874Z" fill="white"/>
<path d="M70.9529 48.2241H57.2549V81.5561H70.9529V48.2241Z" fill="#23A9B1"/>
<path opacity="0.4" d="M67.6749 48.2241H57.2549V81.5561H67.6749V48.2241Z" fill="white"/>
<path d="M61.9107 50.9622H58.2646V52.7322H61.9107V50.9622Z" fill="#23A9B1"/>
<path opacity="0.2" d="M61.9108 50.9622H58.5068V52.7322H61.9108V50.9622Z" fill="white"/>
<path d="M66.1289 50.9622H62.4829V52.7322H66.1289V50.9622Z" fill="#23A9B1"/>
<path opacity="0.2" d="M66.1291 50.9622H62.7251V52.7322H66.1291V50.9622Z" fill="white"/>
<path d="M61.9107 54.2939H58.2646V56.0639H61.9107V54.2939Z" fill="#23A9B1"/>
<path opacity="0.2" d="M61.9108 54.2939H58.5068V56.0639H61.9108V54.2939Z" fill="white"/>
<path d="M66.1289 54.2939H62.4829V56.0639H66.1289V54.2939Z" fill="#23A9B1"/>
<path opacity="0.2" d="M66.1291 54.2939H62.7251V56.0639H66.1291V54.2939Z" fill="white"/>
<path d="M61.9107 58.552H58.2646V60.322H61.9107V58.552Z" fill="#23A9B1"/>
<path opacity="0.2" d="M61.9108 58.552H58.5068V60.322H61.9108V58.552Z" fill="white"/>
<path d="M66.1289 58.552H62.4829V60.322H66.1289V58.552Z" fill="#23A9B1"/>
<path opacity="0.2" d="M66.1291 58.552H62.7251V60.322H66.1291V58.552Z" fill="white"/>
<path d="M61.9107 60.998H58.2646V62.768H61.9107V60.998Z" fill="#23A9B1"/>
<path opacity="0.2" d="M61.9108 60.998H58.5068V62.768H61.9108V60.998Z" fill="white"/>
<path d="M66.1289 60.998H62.4829V62.768H66.1289V60.998Z" fill="#23A9B1"/>
<path opacity="0.2" d="M66.1291 60.998H62.7251V62.768H66.1291V60.998Z" fill="white"/>
<path d="M61.9107 65.0181H58.2646V66.7881H61.9107V65.0181Z" fill="#23A9B1"/>
<path opacity="0.2" d="M61.9108 65.0181H58.5068V66.7881H61.9108V65.0181Z" fill="white"/>
<path d="M66.1289 65.0181H62.4829V66.7881H66.1289V65.0181Z" fill="#23A9B1"/>
<path opacity="0.2" d="M66.1291 65.0181H62.7251V66.7881H66.1291V65.0181Z" fill="white"/>
<path d="M61.9107 67.4641H58.2646V69.2341H61.9107V67.4641Z" fill="#23A9B1"/>
<path opacity="0.2" d="M61.9108 67.4641H58.5068V69.2341H61.9108V67.4641Z" fill="white"/>
<path d="M66.1289 67.4641H62.4829V69.2341H66.1289V67.4641Z" fill="#23A9B1"/>
<path opacity="0.2" d="M66.1291 67.4641H62.7251V69.2341H66.1291V67.4641Z" fill="white"/>
<path d="M61.9107 71.8381H58.2646V73.6081H61.9107V71.8381Z" fill="#23A9B1"/>
<path opacity="0.2" d="M61.9108 71.8381H58.5068V73.6081H61.9108V71.8381Z" fill="white"/>
<path d="M66.1289 71.8381H62.4829V73.6081H66.1289V71.8381Z" fill="#23A9B1"/>
<path opacity="0.2" d="M66.1291 71.8381H62.7251V73.6081H66.1291V71.8381Z" fill="white"/>
<path d="M61.9107 75.0701H58.2646V76.8401H61.9107V75.0701Z" fill="#23A9B1"/>
<path opacity="0.2" d="M61.9108 75.0701H58.5068V76.8401H61.9108V75.0701Z" fill="white"/>
<path d="M66.1289 75.0701H62.4829V76.8401H66.1289V75.0701Z" fill="#23A9B1"/>
<path opacity="0.2" d="M66.1291 75.0701H62.7251V76.8401H66.1291V75.0701Z" fill="white"/>
<path d="M70.9548 47.238H56.6108V48.302H70.9548V47.238Z" fill="#23A9B1"/>
<path opacity="0.2" d="M70.9548 47.238H67.6768V48.302H70.9548V47.238Z" fill="black"/>
<path d="M57.2548 62.9421H55.9648V64.9601H57.2548V62.9421Z" fill="#E0E0E0"/>
<path d="M57.2548 66.2441H55.9648V68.2621H57.2548V66.2441Z" fill="#E0E0E0"/>
<path d="M57.2548 69.4541H55.9648V71.4721H57.2548V69.4541Z" fill="#E0E0E0"/>
<path d="M57.2548 72.8481H55.9648V74.8661H57.2548V72.8481Z" fill="#E0E0E0"/>
<path d="M57.2548 76.1501H55.9648V78.1681H57.2548V76.1501Z" fill="#E0E0E0"/>
<path d="M57.2546 60.9141H43.6826V81.5561H57.2546V60.9141Z" fill="#23A9B1"/>
<path opacity="0.3" d="M54.9626 60.9121H43.6826V81.5561H54.9626V60.9121Z" fill="white"/>
<path d="M53.8688 62.9421H44.6968V64.9601H53.8688V62.9421Z" fill="#23A9B1"/>
<path d="M53.8688 66.2441H44.6968V68.2621H53.8688V66.2441Z" fill="#23A9B1"/>
<path d="M53.8688 69.5461H44.6968V71.5641H53.8688V69.5461Z" fill="#23A9B1"/>
<path d="M53.8688 72.8481H44.6968V74.8661H53.8688V72.8481Z" fill="#23A9B1"/>
<path d="M53.8688 76.1501H44.6968V78.1681H53.8688V76.1501Z" fill="#23A9B1"/>
<g opacity="0.1">
<path d="M53.8687 62.9421H45.0347V64.9601H53.8687V62.9421Z" fill="white"/>
<path d="M53.8687 66.2441H45.0347V68.2621H53.8687V66.2441Z" fill="white"/>
<path d="M53.8687 69.5461H45.0347V71.5641H53.8687V69.5461Z" fill="white"/>
<path d="M53.8687 72.8481H45.0347V74.8661H53.8687V72.8481Z" fill="white"/>
<path d="M53.8687 76.1501H45.0347V78.1681H53.8687V76.1501Z" fill="white"/>
</g>
<path d="M15.7388 67.2541H6.63477V81.5561H21.1648V67.2541V60.9121L15.7388 67.2541Z" fill="#23A9B1"/>
<path d="M23.8766 60.9121H21.1646V81.5561H23.8766V60.9121Z" fill="#23A9B1"/>
<path opacity="0.7" d="M23.8766 60.9121H21.1646V81.5561H23.8766V60.9121Z" fill="white"/>
<path opacity="0.7" d="M43.6826 43.5339H40.0806V81.5559H43.6826V43.5339Z" fill="white"/>
<path opacity="0.6" d="M57.2549 60.9121H54.9629V81.5561H57.2549V60.9121Z" fill="white"/>
<path opacity="0.7" d="M70.9548 48.302H67.6768V81.556H70.9548V48.302Z" fill="white"/>
<path opacity="0.5" d="M72.8729 42.5881H72.3569V44.7181H72.8729V42.5881Z" fill="white"/>
<path opacity="0.5" d="M72.8729 46.1721H72.3569V48.3021H72.8729V46.1721Z" fill="white"/>
<path opacity="0.5" d="M72.8729 49.8979H72.3569V52.028H72.8729V49.8979Z" fill="white"/>
<path opacity="0.5" d="M72.8729 53.624H72.3569V55.754H72.8729V53.624Z" fill="white"/>
<path opacity="0.5" d="M72.8729 57.3481H72.3569V59.4781H72.8729V57.3481Z" fill="white"/>
<path opacity="0.5" d="M72.8729 61.074H72.3569V63.204H72.8729V61.074Z" fill="white"/>
<path opacity="0.5" d="M72.8729 65.1799H72.3569V67.3099H72.8729V65.1799Z" fill="white"/>
<path opacity="0.5" d="M72.8729 69.2861H72.3569V71.4161H72.8729V69.2861Z" fill="white"/>
<path opacity="0.5" d="M72.8729 73.3901H72.3569V75.5201H72.8729V73.3901Z" fill="white"/>
<path opacity="0.5" d="M72.8729 77.4961H72.3569V79.6261H72.8729V77.4961Z" fill="white"/>
<path d="M92.9947 39.75H76.9087V81.556H92.9947V39.75Z" fill="#23A9B1"/>
<path d="M87.0386 39.75H70.9526V81.556H87.0386V39.75Z" fill="#23A9B1"/>
<path opacity="0.7" d="M92.9945 40.3501H87.0405V81.5561H92.9945V40.3501Z" fill="white"/>
<path d="M92.9947 42.5881H88.5127V44.7181H92.9947V42.5881Z" fill="#23A9B1"/>
<path d="M92.9947 46.092H88.5127V48.222H92.9947V46.092Z" fill="#23A9B1"/>
<path d="M92.9947 49.5981H88.5127V51.7281H92.9947V49.5981Z" fill="#23A9B1"/>
<path d="M92.9947 53.6221H88.5127V55.7521H92.9947V53.6221Z" fill="#23A9B1"/>
<path d="M92.9947 57.3481H88.5127V59.4781H92.9947V57.3481Z" fill="#23A9B1"/>
<path d="M92.9947 61.0742H88.5127V63.2042H92.9947V61.0742Z" fill="#23A9B1"/>
<path d="M92.9947 65.1782H88.5127V67.3082H92.9947V65.1782Z" fill="#23A9B1"/>
<path d="M92.9947 69.2842H88.5127V71.4142H92.9947V69.2842Z" fill="#23A9B1"/>
<path d="M92.9947 73.3901H88.5127V75.5201H92.9947V73.3901Z" fill="#23A9B1"/>
<path d="M92.9947 77.4961H88.5127V79.6261H92.9947V77.4961Z" fill="#23A9B1"/>
<path opacity="0.3" d="M92.9947 42.5881H88.5127V44.7181H92.9947V42.5881Z" fill="white"/>
<path opacity="0.3" d="M92.9947 46.092H88.5127V48.222H92.9947V46.092Z" fill="white"/>
<path opacity="0.3" d="M92.9947 49.5981H88.5127V51.7281H92.9947V49.5981Z" fill="white"/>
<path opacity="0.3" d="M92.9947 53.6221H88.5127V55.7521H92.9947V53.6221Z" fill="white"/>
<path opacity="0.3" d="M92.9947 57.3481H88.5127V59.4781H92.9947V57.3481Z" fill="white"/>
<path opacity="0.3" d="M92.9947 61.0742H88.5127V63.2042H92.9947V61.0742Z" fill="white"/>
<path opacity="0.3" d="M92.9947 65.1782H88.5127V67.3082H92.9947V65.1782Z" fill="white"/>
<path opacity="0.3" d="M92.9947 69.2842H88.5127V71.4142H92.9947V69.2842Z" fill="white"/>
<path opacity="0.3" d="M92.9947 73.3901H88.5127V75.5201H92.9947V73.3901Z" fill="white"/>
<path opacity="0.3" d="M92.9947 77.4961H88.5127V79.6261H92.9947V77.4961Z" fill="white"/>
<path opacity="0.4" d="M87.0386 39.75H70.9526V81.556H87.0386V39.75Z" fill="white"/>
<path d="M85.6364 42.5881H72.3564V44.7181H85.6364V42.5881Z" fill="#23A9B1"/>
<path opacity="0.2" d="M85.6366 42.5881H72.8726V44.7181H85.6366V42.5881Z" fill="white"/>
<path d="M85.6364 46.1721H72.3564V48.3021H85.6364V46.1721Z" fill="#23A9B1"/>
<path opacity="0.2" d="M85.6366 46.1721H72.8726V48.3021H85.6366V46.1721Z" fill="white"/>
<path d="M85.6364 49.8979H72.3564V52.028H85.6364V49.8979Z" fill="#23A9B1"/>
<path opacity="0.2" d="M85.6366 49.8979H72.8726V52.028H85.6366V49.8979Z" fill="white"/>
<path d="M85.6364 53.624H72.3564V55.754H85.6364V53.624Z" fill="#23A9B1"/>
<path opacity="0.2" d="M85.6366 53.624H72.8726V55.754H85.6366V53.624Z" fill="white"/>
<path d="M85.6364 57.3481H72.3564V59.4781H85.6364V57.3481Z" fill="#23A9B1"/>
<path opacity="0.2" d="M85.6366 57.3481H72.8726V59.4781H85.6366V57.3481Z" fill="white"/>
<path d="M85.6364 61.074H72.3564V63.204H85.6364V61.074Z" fill="#23A9B1"/>
<path opacity="0.2" d="M85.6366 61.074H72.8726V63.204H85.6366V61.074Z" fill="white"/>
<path d="M85.6364 65.1799H72.3564V67.3099H85.6364V65.1799Z" fill="#23A9B1"/>
<path opacity="0.2" d="M85.6366 65.1799H72.8726V67.3099H85.6366V65.1799Z" fill="white"/>
<path d="M85.6364 69.2861H72.3564V71.4161H85.6364V69.2861Z" fill="#23A9B1"/>
<path opacity="0.2" d="M85.6366 69.2861H72.8726V71.4161H85.6366V69.2861Z" fill="white"/>
<path d="M85.6364 73.3901H72.3564V75.5201H85.6364V73.3901Z" fill="#23A9B1"/>
<path opacity="0.2" d="M85.6366 73.3901H72.8726V75.5201H85.6366V73.3901Z" fill="white"/>
<path d="M85.6364 77.4961H72.3564V79.6261H85.6364V77.4961Z" fill="#23A9B1"/>
<path opacity="0.2" d="M85.6366 77.4961H72.8726V79.6261H85.6366V77.4961Z" fill="white"/>
<path d="M92.6505 38.5081H87.0405V39.3281H92.6505V38.5081Z" fill="#23A9B1"/>
<path d="M92.6506 38.3081H70.9526V39.3281H92.6506V38.3081Z" fill="#F0F0F0"/>
<path d="M93.4125 39.3301H70.4985V40.3501H93.4125V39.3301Z" fill="#23A9B1"/>
<path d="M93.4125 37.488H70.4985V38.508H93.4125V37.488Z" fill="#23A9B1"/>
<path opacity="0.05" d="M93.4125 39.3301H70.4985V40.3501H93.4125V39.3301Z" fill="black"/>
<path opacity="0.05" d="M93.4125 37.488H70.4985V38.508H93.4125V37.488Z" fill="black"/>
<path opacity="0.2" d="M70.9529 57.106H57.2549V57.41H70.9529V57.106Z" fill="white"/>
<path opacity="0.2" d="M70.9529 63.6921H57.2549V63.9961H70.9529V63.6921Z" fill="white"/>
<path opacity="0.2" d="M70.9529 70.334H57.2549V70.638H70.9529V70.334Z" fill="white"/>
<path opacity="0.2" d="M43.9146 42.9041H40.0806V43.5341H43.9146V42.9041Z" fill="black"/>
<path opacity="0.2" d="M43.9146 41.6421H40.0806V42.2721H43.9146V41.6421Z" fill="black"/>
<path opacity="0.2" d="M93.4125 39.3301H87.0405V40.3501H93.4125V39.3301Z" fill="black"/>
<path opacity="0.2" d="M93.4125 37.488H87.0405V38.508H93.4125V37.488Z" fill="black"/>
<path opacity="0.4" d="M15.7388 67.2541H6.63477V81.5561H21.1648V67.2541V60.9121L15.7388 67.2541Z" fill="white"/>
<path d="M10.1127 70.1541H7.95068V72.3161H10.1127V70.1541Z" fill="#23A9B1"/>
<path d="M14.5126 70.1541H12.3506V72.3161H14.5126V70.1541Z" fill="#23A9B1"/>
<path d="M18.9125 70.1541H16.7505V72.3161H18.9125V70.1541Z" fill="#23A9B1"/>
<path d="M10.1127 73.792H7.95068V75.954H10.1127V73.792Z" fill="#23A9B1"/>
<path d="M14.5126 73.792H12.3506V75.954H14.5126V73.792Z" fill="#23A9B1"/>
<path d="M18.9125 73.792H16.7505V75.954H18.9125V73.792Z" fill="#23A9B1"/>
<path d="M10.1127 77.4299H7.95068V79.5919H10.1127V77.4299Z" fill="#23A9B1"/>
<path d="M14.5126 77.4299H12.3506V79.5919H14.5126V77.4299Z" fill="#23A9B1"/>
<path d="M18.9125 77.4299H16.7505V79.5919H18.9125V77.4299Z" fill="#23A9B1"/>
<path opacity="0.2" d="M10.3529 70.1541H8.19092V72.3161H10.3529V70.1541Z" fill="white"/>
<path opacity="0.2" d="M14.7509 70.1541H12.5889V72.3161H14.7509V70.1541Z" fill="white"/>
<path opacity="0.2" d="M19.1508 70.1541H16.9888V72.3161H19.1508V70.1541Z" fill="white"/>
<path opacity="0.2" d="M10.3529 73.792H8.19092V75.954H10.3529V73.792Z" fill="white"/>
<path opacity="0.2" d="M14.7509 73.792H12.5889V75.954H14.7509V73.792Z" fill="white"/>
<path opacity="0.2" d="M19.1508 73.792H16.9888V75.954H19.1508V73.792Z" fill="white"/>
<path opacity="0.2" d="M10.3529 77.4302H8.19092V79.5922H10.3529V77.4302Z" fill="white"/>
<path opacity="0.2" d="M14.7509 77.4302H12.5889V79.5922H14.7509V77.4302Z" fill="white"/>
<path opacity="0.2" d="M19.1508 77.4302H16.9888V79.5922H19.1508V77.4302Z" fill="white"/>
<path d="M49.2261 83.2139L47.9741 89.5659H52.1761L51.7501 83.2139H49.2261Z" fill="#23A9B1"/>
<path d="M53.1543 83.2139L54.9543 89.5659H57.7703L55.4623 83.2139H53.1543Z" fill="#23A9B1"/>
<path d="M57.0464 83.2139L60.7504 89.5659H63.9464L59.1324 83.2139H57.0464Z" fill="#23A9B1"/>
<path d="M60.8042 83.2139L66.9422 89.5659H70.7642L63.0942 83.2139H60.8042Z" fill="#23A9B1"/>
<path d="M47.6585 83.2139L45.8585 89.5659H43.0425L45.3505 83.2139H47.6585Z" fill="#23A9B1"/>
<path d="M43.7662 83.2139L40.0622 89.5659H36.8662L41.6802 83.2139H43.7662Z" fill="#23A9B1"/>
<path d="M40.0083 83.2139L33.8703 89.5659H30.0483L37.7183 83.2139H40.0083Z" fill="#23A9B1"/>
<path opacity="0.4" d="M49.2261 83.2139L47.9741 89.5659H52.1761L51.7501 83.2139H49.2261Z" fill="white"/>
<path opacity="0.4" d="M53.1543 83.2139L54.9543 89.5659H57.7703L55.4623 83.2139H53.1543Z" fill="white"/>
<path opacity="0.4" d="M57.0464 83.2139L60.7504 89.5659H63.9464L59.1324 83.2139H57.0464Z" fill="white"/>
<path opacity="0.4" d="M60.8042 83.2139L66.9422 89.5659H70.7642L63.0942 83.2139H60.8042Z" fill="white"/>
<path opacity="0.4" d="M47.6585 83.2139L45.8585 89.5659H43.0425L45.3505 83.2139H47.6585Z" fill="white"/>
<path opacity="0.4" d="M43.7662 83.2139L40.0622 89.5659H36.8662L41.6802 83.2139H43.7662Z" fill="white"/>
<path opacity="0.4" d="M40.0083 83.2139L33.8703 89.5659H30.0483L37.7183 83.2139H40.0083Z" fill="white"/>
<path d="M20.5385 80.8219C22.0045 80.7699 23.4365 80.0759 24.3865 78.9559C25.3365 77.8379 25.7905 76.3119 25.6045 74.8559C25.4725 73.8139 25.0365 72.8399 24.7285 71.8359C24.1445 69.9359 23.9605 67.7959 22.6245 66.3259C21.8045 65.4239 20.5945 64.8879 19.3745 64.8879C18.1545 64.8879 16.9445 65.4199 16.1225 66.3219C15.2565 67.2719 14.8465 68.5559 14.6685 69.8279C14.4905 71.0999 14.5165 72.3919 14.3985 73.6719C14.2985 74.7339 14.0985 75.7939 14.1405 76.8599C14.1825 77.9259 14.5045 79.0359 15.2865 79.7619C15.6725 80.1199 16.1465 80.3659 16.6185 80.5999C17.0905 80.8339 17.5765 81.0619 18.0985 81.1319C18.6205 81.2019 19.1925 81.0899 19.5685 80.7219C19.8025 80.8079 20.2905 80.8319 20.5385 80.8219Z" fill="#23A9B1"/>
<path opacity="0.7" d="M20.5385 80.8219C22.0045 80.7699 23.4365 80.0759 24.3865 78.9559C25.3365 77.8379 25.7905 76.3119 25.6045 74.8559C25.4725 73.8139 25.0365 72.8399 24.7285 71.8359C24.1445 69.9359 23.9605 67.7959 22.6245 66.3259C21.8045 65.4239 20.5945 64.8879 19.3745 64.8879C18.1545 64.8879 16.9445 65.4199 16.1225 66.3219C15.2565 67.2719 14.8465 68.5559 14.6685 69.8279C14.4905 71.0999 14.5165 72.3919 14.3985 73.6719C14.2985 74.7339 14.0985 75.7939 14.1405 76.8599C14.1825 77.9259 14.5045 79.0359 15.2865 79.7619C15.6725 80.1199 16.1465 80.3659 16.6185 80.5999C17.0905 80.8339 17.5765 81.0619 18.0985 81.1319C18.6205 81.2019 19.1925 81.0899 19.5685 80.7219C19.8025 80.8079 20.2905 80.8319 20.5385 80.8219Z" fill="white"/>
<path d="M18.0923 84.6998V84.4358L18.5343 84.0598C18.5343 84.0598 19.0643 78.6538 19.1523 77.0978C19.2403 75.5418 19.3503 73.0698 18.7763 71.2818C18.7763 71.2818 19.5263 72.9578 19.8583 75.0878C19.8583 75.0878 20.5423 72.6278 21.7563 71.0598C21.7563 71.0598 20.2783 74.8398 20.4763 78.3578C20.6743 81.8758 21.2263 84.3038 21.2263 84.3038L21.4903 84.4798L21.5123 84.6998H18.0923Z" fill="#23A9B1"/>
<path d="M19.4424 76.0239C19.4424 76.0239 19.0604 74.3199 18.0244 73.4739C18.0244 73.4739 18.8904 74.6659 19.1744 76.6919C19.4584 78.7179 19.7604 77.4259 19.7604 77.4259L19.4424 76.0239Z" fill="#23A9B1"/>
<path d="M18.9903 80.6338C18.9903 80.6338 18.8503 80.0178 18.2183 79.6318C18.2183 79.6318 18.6143 80.0158 18.8023 81.2458C18.9903 82.4758 19.4483 81.7918 19.4483 81.7918L19.4843 81.1158L18.9903 80.6338Z" fill="#23A9B1"/>
<path opacity="0.2" d="M18.8024 81.2459C18.6144 80.0159 18.2184 79.6319 18.2184 79.6319C18.5784 79.8519 18.7784 80.1459 18.8844 80.3579C19.0044 79.0479 19.1164 77.7419 19.1524 77.0959C19.1604 76.9679 19.1664 76.8319 19.1744 76.6919C18.8904 74.6679 18.0244 73.4759 18.0244 73.4759C18.6264 73.9679 19.0084 74.7479 19.2204 75.3159C19.2384 73.9839 19.1604 72.4779 18.7764 71.2799C18.7764 71.2799 19.5264 72.9559 19.8584 75.0859C19.8584 75.0859 20.5424 72.6259 21.7564 71.0579C21.7564 71.0579 20.2784 74.8379 20.4764 78.3559C20.6744 81.8739 21.2264 84.3019 21.2264 84.3019L21.4904 84.4779L21.5124 84.6979H18.0924V84.4339L18.5344 84.0579C18.5344 84.0599 18.6604 82.7559 18.8024 81.2459Z" fill="black"/>
<path d="M79.4506 81.6779C77.7946 81.6179 76.1786 80.8339 75.1066 79.5719C74.0346 78.3099 73.5226 76.5879 73.7306 74.9439C73.8806 73.7679 74.3726 72.6679 74.7206 71.5359C75.3786 69.3919 75.5866 66.9739 77.0966 65.3139C78.0226 64.2959 79.3886 63.6919 80.7646 63.6899C82.1406 63.6879 83.5066 64.2919 84.4346 65.3079C85.4126 66.3799 85.8746 67.8299 86.0766 69.2659C86.2786 70.7019 86.2466 72.1619 86.3826 73.6059C86.4946 74.8059 86.7226 76.0019 86.6746 77.2059C86.6266 78.4099 86.2626 79.6619 85.3806 80.4819C84.9446 80.8859 84.4086 81.1639 83.8766 81.4279C83.3426 81.6919 82.7946 81.9499 82.2046 82.0279C81.6146 82.1059 80.9686 81.9819 80.5446 81.5639C80.2806 81.6619 79.7286 81.6879 79.4506 81.6779Z" fill="#23A9B1"/>
<path opacity="0.7" d="M79.4506 81.6779C77.7946 81.6179 76.1786 80.8339 75.1066 79.5719C74.0346 78.3099 73.5226 76.5879 73.7306 74.9439C73.8806 73.7679 74.3726 72.6679 74.7206 71.5359C75.3786 69.3919 75.5866 66.9739 77.0966 65.3139C78.0226 64.2959 79.3886 63.6919 80.7646 63.6899C82.1406 63.6879 83.5066 64.2919 84.4346 65.3079C85.4126 66.3799 85.8746 67.8299 86.0766 69.2659C86.2786 70.7019 86.2466 72.1619 86.3826 73.6059C86.4946 74.8059 86.7226 76.0019 86.6746 77.2059C86.6266 78.4099 86.2626 79.6619 85.3806 80.4819C84.9446 80.8859 84.4086 81.1639 83.8766 81.4279C83.3426 81.6919 82.7946 81.9499 82.2046 82.0279C81.6146 82.1059 80.9686 81.9819 80.5446 81.5639C80.2806 81.6619 79.7286 81.6879 79.4506 81.6779Z" fill="white"/>
<path d="M82.2107 86.054V85.756L81.7127 85.332C81.7127 85.332 81.1147 79.23 81.0147 77.472C80.9147 75.714 80.7907 72.924 81.4387 70.906C81.4387 70.906 80.5907 72.798 80.2187 75.202C80.2187 75.202 79.4467 72.424 78.0767 70.656C78.0767 70.656 79.7467 74.924 79.5227 78.894C79.2987 82.864 78.6747 85.606 78.6747 85.606L78.3767 85.806L78.3527 86.056H82.2107V86.054Z" fill="#23A9B1"/>
<path d="M80.6867 76.262C80.6867 76.262 81.1187 74.338 82.2867 73.384C82.2867 73.384 81.3087 74.73 80.9887 77.016C80.6687 79.302 80.3267 77.846 80.3267 77.846L80.6867 76.262Z" fill="#23A9B1"/>
<path d="M81.1966 81.466C81.1966 81.466 81.3546 80.77 82.0686 80.334C82.0686 80.334 81.6226 80.768 81.4086 82.156C81.1966 83.544 80.6806 82.772 80.6806 82.772L80.6406 82.008L81.1966 81.466Z" fill="#23A9B1"/>
<path opacity="0.2" d="M81.4106 82.156C81.6226 80.768 82.0706 80.334 82.0706 80.334C81.6646 80.582 81.4386 80.914 81.3186 81.154C81.1846 79.676 81.0566 78.2 81.0166 77.472C81.0086 77.328 81.0006 77.172 80.9926 77.014C81.3126 74.728 82.2906 73.384 82.2906 73.384C81.6106 73.938 81.1806 74.82 80.9386 75.462C80.9186 73.958 81.0046 72.26 81.4406 70.906C81.4406 70.906 80.5926 72.798 80.2206 75.202C80.2206 75.202 79.4486 72.424 78.0786 70.656C78.0786 70.656 79.7486 74.924 79.5246 78.894C79.3006 82.864 78.6766 85.606 78.6766 85.606L78.3786 85.806L78.3546 86.056H82.2166V85.758L81.7186 85.334C81.7126 85.332 81.5686 83.862 81.4106 82.156Z" fill="black"/>
</g>
<defs>
<clipPath id="clip0_905_770">
<rect width="100" height="100" fill="white"/>
</clipPath>
</defs>
</svg>
