<svg width="18" height="18" viewBox="0 0 18 18" fill="none" xmlns="http://www.w3.org/2000/svg">
<g clip-path="url(#clip0_905_282)">
<path d="M9.60443 8.4215C9.60443 8.08835 9.33334 7.81726 9.00019 7.81726C8.1997 7.84766 8.19991 8.99544 9.00019 9.0257C9.33334 9.0257 9.60443 8.75468 9.60443 8.4215Z" fill="white"/>
<path d="M14.1895 6.2404C12.2874 1.6747 5.71144 1.67675 3.81057 6.2404C-1.64054 7.18671 -1.08546 15.0314 4.46738 15.183C4.46731 15.183 6.20473 15.183 6.20473 15.183V13.1733L5.20711 12.1757C4.13137 12.7318 2.78889 11.9044 2.80515 10.6878C2.80515 9.77131 3.5508 9.02566 4.46731 9.02566C5.68376 9.00951 6.51143 10.3519 5.95516 11.4276L7.10773 12.5802C7.20694 12.6794 7.26269 12.8139 7.26269 12.9542V15.183H8.47113V9.99683C6.71195 9.37602 7.1119 6.79636 9.00014 6.7593C10.8887 6.79654 11.288 9.37637 9.52909 9.99683V15.183H10.7375V12.9543C10.7375 12.8139 10.7932 12.6794 10.8925 12.5802L12.0451 11.4277C11.4889 10.3519 12.3164 9.00944 13.5329 9.02569C14.4495 9.02569 15.1951 9.77135 15.1951 10.6879C15.2113 11.9043 13.8689 12.732 12.7931 12.1757L11.7955 13.1733V15.183H13.5329C19.087 15.0312 19.6391 7.18555 14.1895 6.2404V6.2404Z" fill="white"/>
<path d="M14.1371 10.6879C14.1371 10.3547 13.866 10.0836 13.5329 10.0836C12.7324 10.114 12.7326 11.2618 13.5329 11.2921C13.866 11.2921 14.1371 11.021 14.1371 10.6879Z" fill="white"/>
<path d="M3.86328 10.6879C3.86328 11.021 4.13437 11.2921 4.46752 11.2921C5.26797 11.2617 5.26772 10.1139 4.46752 10.0836C4.13433 10.0836 3.86328 10.3547 3.86328 10.6879Z" fill="white"/>
</g>
<defs>
<clipPath id="clip0_905_282">
<rect width="18" height="18" fill="white"/>
</clipPath>
</defs>
</svg>
