<svg width="320" height="321" viewBox="0 0 320 321" fill="none" xmlns="http://www.w3.org/2000/svg">
<g clip-path="url(#clip0_905_57)">
<path d="M311.643 213.939C311.643 214.746 311.039 215.351 310.232 215.351C309.426 215.351 308.821 214.746 308.821 213.939C308.821 213.133 309.426 212.528 310.232 212.528C310.938 212.427 311.643 213.133 311.643 213.939Z" fill="#23A9B1"/>
<path d="M142.411 265.862C143.135 265.862 143.721 265.275 143.721 264.551C143.721 263.827 143.135 263.24 142.411 263.24C141.687 263.24 141.101 263.827 141.101 264.551C141.101 265.275 141.687 265.862 142.411 265.862Z" fill="#23A9B1"/>
<path d="M279.437 305.297C279.437 306.809 278.127 308.12 276.615 308.12C275.103 308.12 273.793 306.809 273.793 305.297C273.793 303.785 275.103 302.474 276.615 302.474C278.228 302.474 279.437 303.684 279.437 305.297Z" fill="#23A9B1"/>
<path d="M285.639 107.474C285.639 109.289 284.127 110.801 282.313 110.801C280.498 110.801 278.986 109.289 278.986 107.474C278.986 105.659 280.498 104.147 282.313 104.147C284.127 104.147 285.639 105.558 285.639 107.474Z" fill="#DBDBDB" fill-opacity="0.1"/>
<path d="M283.018 287.84C283.018 288.647 282.413 289.252 281.607 289.252C280.801 289.252 280.196 288.647 280.196 287.84C280.196 287.034 280.801 286.429 281.607 286.429C282.413 286.429 283.018 287.034 283.018 287.84Z" fill="#DBDBDB" fill-opacity="0.1"/>
<path d="M118.724 287.437C118.724 289.151 117.313 290.562 115.6 290.562C113.886 290.562 112.475 289.151 112.475 287.437C112.475 285.723 113.886 284.312 115.6 284.312C117.313 284.312 118.724 285.723 118.724 287.437Z" fill="#DBDBDB" fill-opacity="0.1"/>
<path d="M264.271 173.712C264.271 174.721 263.363 175.628 262.356 175.628C261.348 175.628 260.44 174.721 260.44 173.712C260.44 172.704 261.348 171.797 262.356 171.797C263.363 171.797 264.271 172.603 264.271 173.712Z" fill="#DBDBDB" fill-opacity="0.1"/>
<path d="M44.5403 286.025C44.5403 286.933 43.8347 287.739 42.8268 287.739C41.9196 287.739 41.1133 287.034 41.1133 286.025C41.1133 285.118 41.8188 284.312 42.8268 284.312C43.7339 284.312 44.5403 285.118 44.5403 286.025Z" fill="#DBDBDB" fill-opacity="0.1"/>
<path d="M253.687 137.316C253.687 138.123 253.082 138.728 252.276 138.728C251.47 138.728 250.865 138.123 250.865 137.316C250.865 136.51 251.47 135.905 252.276 135.905C253.082 135.905 253.687 136.51 253.687 137.316Z" fill="#23A9B1" fill-opacity="0.3"/>
<path d="M214.579 173.007C214.579 175.124 212.866 176.737 210.85 176.737C208.733 176.737 207.121 175.023 207.121 173.007C207.121 170.889 208.834 169.276 210.85 169.276C212.866 169.276 214.579 170.99 214.579 173.007Z" fill="#23A9B1" fill-opacity="0.3"/>
<path d="M323.94 265.962C323.94 268.281 322.025 270.197 319.707 270.197C317.389 270.197 315.474 268.281 315.474 265.962C315.474 263.644 317.389 261.728 319.707 261.728C322.126 261.728 323.94 263.644 323.94 265.962Z" fill="#23A9B1" fill-opacity="0.3"/>
<path d="M254.997 215.048C256.389 215.048 257.517 213.92 257.517 212.528C257.517 211.136 256.389 210.007 254.997 210.007C253.606 210.007 252.478 211.136 252.478 212.528C252.478 213.92 253.606 215.048 254.997 215.048Z" fill="#23A9B1"/>
<path d="M286.848 68.8599C288.017 68.8599 288.965 67.912 288.965 66.7427C288.965 65.5734 288.017 64.6255 286.848 64.6255C285.679 64.6255 284.731 65.5734 284.731 66.7427C284.731 67.912 285.679 68.8599 286.848 68.8599Z" fill="#23A9B1"/>
<path d="M163.578 224.828C164.357 224.828 164.989 224.196 164.989 223.416C164.989 222.637 164.357 222.005 163.578 222.005C162.798 222.005 162.167 222.637 162.167 223.416C162.167 224.196 162.798 224.828 163.578 224.828Z" fill="#23A9B1" fill-opacity="0.3"/>
<path d="M166.601 177.544C166.601 178.653 165.694 179.459 164.686 179.459C163.678 179.459 162.771 178.552 162.771 177.544C162.771 176.434 163.678 175.628 164.686 175.628C165.694 175.628 166.601 176.434 166.601 177.544Z" fill="#23A9B1" fill-opacity="0.3"/>
<path d="M222.34 121.992C223.732 121.992 224.86 120.863 224.86 119.471C224.86 118.079 223.732 116.951 222.34 116.951C220.948 116.951 219.82 118.079 219.82 119.471C219.82 120.863 220.948 121.992 222.34 121.992Z" fill="#23A9B1" fill-opacity="0.3"/>
<path d="M271.427 248.924C271.427 250.638 270.015 251.948 268.403 251.948C266.79 251.948 265.379 250.537 265.379 248.924C265.379 247.21 266.79 245.899 268.403 245.899C270.015 245.899 271.427 247.21 271.427 248.924Z" fill="#23A9B1" fill-opacity="0.3"/>
<path d="M309.325 167.462C310.55 167.462 311.543 166.469 311.543 165.244C311.543 164.019 310.55 163.026 309.325 163.026C308.101 163.026 307.108 164.019 307.108 165.244C307.108 166.469 308.101 167.462 309.325 167.462Z" fill="#23A9B1" fill-opacity="0.3"/>
<path d="M305.798 73.5983C305.798 73.5983 305.697 73.5983 305.697 73.4975V73.3967L323.235 36.3959L323.336 36.295H323.436L346.72 66.9442V67.0451L346.619 67.1459L305.798 73.5983ZM323.436 36.6983L305.999 73.2959L346.417 67.0451L323.436 36.6983Z" fill="#C7C7C7" fill-opacity="0.1"/>
<path d="M320.312 92.5525C320.312 92.5525 320.211 92.5525 320.312 92.5525L285.336 85.3943C285.235 85.3943 285.235 85.2935 285.235 85.2935C285.235 85.1926 285.235 85.1926 285.336 85.1926L305.797 73.4976C305.898 73.4976 305.898 73.4976 305.999 73.4976L320.412 92.3508V92.4517C320.312 92.4517 320.312 92.5525 320.312 92.5525ZM285.639 85.0918L319.908 92.1492L305.797 73.5984L285.639 85.0918Z" fill="#C7C7C7" fill-opacity="0.1"/>
<path d="M320.312 92.5524C320.211 92.5524 320.211 92.4516 320.312 92.5524L305.697 73.5983V73.4975L305.798 73.3967L346.619 67.045C346.72 67.045 346.72 67.045 346.72 67.1459V67.2467L320.312 92.5524C320.312 92.4516 320.312 92.5524 320.312 92.5524ZM305.999 73.4975L320.211 92.1491L346.216 67.2467L305.999 73.4975Z" fill="#C7C7C7" fill-opacity="0.1"/>
<path d="M268.907 138.224L233.025 124.613L232.924 124.512V124.411L285.135 85.0918H285.236C285.236 85.0918 285.337 85.1926 285.236 85.1926L269.008 138.123C269.008 138.123 269.008 138.224 268.907 138.224ZM233.327 124.512L268.806 137.921L285.034 85.4951L233.327 124.512Z" fill="#C7C7C7" fill-opacity="0.1"/>
<path d="M268.907 138.224C268.907 138.224 268.806 138.224 268.806 138.123C268.806 138.022 268.806 138.022 268.806 137.921L320.211 92.25C320.211 92.25 320.312 92.25 320.413 92.25C320.413 92.25 320.513 92.3508 320.413 92.4516L302.673 127.436C302.673 127.436 302.673 127.537 302.572 127.537L268.907 138.224ZM319.808 92.9557L269.411 137.82L302.37 127.234L319.808 92.9557Z" fill="#C7C7C7" fill-opacity="0.1"/>
<path d="M268.907 138.224C268.806 138.123 268.806 138.123 268.806 138.022L285.236 85.0918C285.236 84.991 285.336 84.991 285.336 84.991L320.312 92.1492C320.312 92.1492 320.413 92.1492 320.413 92.25V92.3508L268.907 138.224C269.008 138.224 268.907 138.224 268.907 138.224ZM285.437 85.2934L269.209 137.619L320.009 92.3508L285.437 85.2934Z" fill="#C7C7C7" fill-opacity="0.1"/>
<path d="M338.858 130.36L302.572 127.436C302.471 127.436 302.471 127.436 302.471 127.335V127.234L354.682 87.6123C354.682 87.6123 354.783 87.6123 354.884 87.6123C354.884 87.6123 354.985 87.7131 354.884 87.7131L338.958 130.158C338.958 130.259 338.858 130.36 338.858 130.36ZM302.874 127.234L338.757 130.057L354.481 88.1164L302.874 127.234Z" fill="#C7C7C7" fill-opacity="0.1"/>
<path d="M302.572 127.436C302.471 127.436 302.471 127.436 302.572 127.436C302.471 127.335 302.471 127.335 302.471 127.234L320.211 92.25L320.312 92.1492L354.783 87.5115C354.884 87.5115 354.884 87.5115 354.884 87.6123C354.884 87.7131 354.884 87.7131 354.884 87.7131L302.572 127.436ZM320.312 92.4516L302.874 126.831L354.279 87.8139L320.312 92.4516Z" fill="#C7C7C7" fill-opacity="0.1"/>
<path d="M194.925 190.247C194.925 190.247 194.824 190.247 194.925 190.247C194.824 190.146 194.824 190.146 194.824 190.045L233.025 124.411C233.025 124.311 233.125 124.311 233.125 124.311C233.226 124.311 233.226 124.411 233.226 124.411L229.094 170.688C229.094 170.688 229.094 170.789 228.993 170.789L194.925 190.247C195.025 190.247 194.925 190.247 194.925 190.247ZM232.924 125.016L195.328 189.743L228.892 170.688L232.924 125.016Z" fill="#C7C7C7" fill-opacity="0.1"/>
<path d="M260.944 182.887C260.844 182.887 260.844 182.887 260.944 182.887L228.993 170.889L228.892 170.789V170.688L268.806 138.022H268.907L269.008 138.123L261.045 182.887C261.045 182.887 261.045 182.887 260.944 182.887ZM229.194 170.789L260.743 182.685L268.706 138.426L229.194 170.789Z" fill="#C7C7C7" fill-opacity="0.1"/>
<path d="M228.993 170.889C228.993 170.889 228.892 170.889 228.993 170.889C228.892 170.889 228.892 170.789 228.892 170.789L233.025 124.512C233.025 124.512 233.025 124.411 233.125 124.411H233.226L269.008 138.022L269.109 138.123V138.224L228.993 170.889ZM233.226 124.714L229.094 170.587L268.605 138.224L233.226 124.714Z" fill="#C7C7C7" fill-opacity="0.1"/>
<path d="M260.945 182.887C260.844 182.887 260.844 182.887 260.945 182.887C260.844 182.786 260.844 182.786 260.844 182.685L302.472 127.235C302.472 127.235 302.572 127.134 302.673 127.235C302.774 127.235 302.774 127.335 302.774 127.436L291.989 158.287C291.989 158.287 291.989 158.287 291.989 158.388L260.945 182.887ZM302.169 128.041L261.65 182.08L291.687 158.085L302.169 128.041Z" fill="#C7C7C7" fill-opacity="0.1"/>
<path d="M260.945 182.887C260.844 182.887 260.844 182.887 260.945 182.887C260.844 182.887 260.844 182.786 260.844 182.786L268.806 138.022C268.806 138.022 268.806 137.921 268.907 137.921L302.572 127.134C302.673 127.134 302.673 127.134 302.673 127.134V127.234L261.045 182.685C260.945 182.887 260.945 182.887 260.945 182.887ZM269.008 138.224L261.146 182.383L302.169 127.638L269.008 138.224Z" fill="#C7C7C7" fill-opacity="0.1"/>
<path d="M348.937 159.295L291.686 158.287C291.585 158.287 291.585 158.287 291.585 158.186C291.585 158.085 291.585 158.085 291.686 158.085L338.757 130.158H338.858C338.858 130.158 338.958 130.158 338.958 130.259L349.139 159.194V159.295C349.038 159.295 349.038 159.295 348.937 159.295ZM292.19 158.085L348.836 159.093L338.757 130.461L292.19 158.085Z" fill="#C7C7C7" fill-opacity="0.1"/>
<path d="M291.787 158.287C291.687 158.287 291.687 158.287 291.787 158.287C291.687 158.186 291.687 158.186 291.687 158.085L302.471 127.234C302.471 127.134 302.572 127.134 302.572 127.134L338.858 130.057C338.959 130.057 338.959 130.057 338.959 130.158C338.959 130.259 338.959 130.259 338.858 130.259L291.787 158.287ZM302.572 127.436L291.888 157.884L338.354 130.259L302.572 127.436Z" fill="#C7C7C7" fill-opacity="0.1"/>
<path d="M157.53 215.048C157.429 215.048 157.429 215.048 157.429 214.948C157.429 214.847 157.429 214.847 157.429 214.847L194.824 190.045C194.824 190.045 194.924 190.045 195.025 190.045L212.261 207.084V207.185L212.16 207.285L157.53 215.048ZM194.924 190.348L158.135 214.746L211.959 207.084L194.924 190.348Z" fill="#C7C7C7" fill-opacity="0.1"/>
<path d="M212.16 207.285C212.06 207.285 212.06 207.285 212.16 207.285C212.06 207.184 212.06 207.184 212.06 207.084L228.892 170.688L228.993 170.587C229.094 170.587 229.094 170.587 229.094 170.688L237.258 200.127C237.258 200.228 237.258 200.228 237.157 200.329L212.16 207.285ZM228.892 171.192L212.362 206.983L236.956 200.228L228.892 171.192Z" fill="#C7C7C7" fill-opacity="0.1"/>
<path d="M212.16 207.285C212.059 207.285 212.059 207.285 212.16 207.285L194.824 190.247V190.146C194.824 190.146 194.824 190.045 194.925 190.045L228.993 170.688H229.094C229.094 170.688 229.194 170.789 229.094 170.789L212.261 207.184C212.261 207.285 212.16 207.285 212.16 207.285ZM195.126 190.146L212.059 206.882L228.69 170.99L195.126 190.146Z" fill="#C7C7C7" fill-opacity="0.1"/>
<path d="M279.49 208.999L237.056 200.43C237.056 200.43 236.956 200.43 236.956 200.329V200.228L260.743 182.786H260.844C260.844 182.786 260.944 182.786 260.944 182.887L279.591 208.898V208.999C279.591 208.999 279.591 208.999 279.49 208.999ZM237.359 200.228L279.188 208.697L260.844 182.988L237.359 200.228Z" fill="#C7C7C7" fill-opacity="0.1"/>
<path d="M237.056 200.43C236.955 200.43 236.955 200.329 236.955 200.329L228.791 170.889V170.789H228.892L260.843 182.786L260.944 182.887C260.944 182.887 260.944 182.988 260.843 182.988L237.056 200.43C237.157 200.43 237.157 200.43 237.056 200.43ZM229.194 170.99L237.258 200.026L260.743 182.786L229.194 170.99Z" fill="#C7C7C7" fill-opacity="0.1"/>
<path d="M279.49 208.999C279.39 208.898 279.39 208.898 279.39 208.798L291.586 158.085C291.586 157.985 291.686 157.984 291.686 157.984C291.787 157.984 291.787 158.085 291.787 158.085L286.647 206.277C286.647 206.277 286.647 206.378 286.546 206.378L279.49 208.999ZM291.384 160.102L279.692 208.697L286.546 206.277L291.384 160.102Z" fill="#C7C7C7" fill-opacity="0.1"/>
<path d="M279.49 208.999C279.49 208.999 279.389 208.999 279.389 208.898L260.743 182.887C260.743 182.786 260.743 182.786 260.743 182.685L291.586 158.085H291.686L291.787 158.186L279.591 208.898C279.591 208.898 279.591 208.999 279.49 208.999ZM261.045 182.786L279.389 208.495L291.485 158.489L261.045 182.786Z" fill="#C7C7C7" fill-opacity="0.1"/>
<path d="M341.579 211.52L286.647 206.479C286.546 206.479 286.546 206.479 286.546 206.378V206.277L348.937 159.094H349.038L349.139 159.194L341.781 211.419C341.68 211.419 341.68 211.52 341.579 211.52ZM286.949 206.277L341.478 211.217L348.836 159.396L286.949 206.277Z" fill="#C7C7C7" fill-opacity="0.1"/>
<path d="M286.647 206.479C286.546 206.479 286.546 206.479 286.647 206.479C286.546 206.479 286.546 206.378 286.546 206.378L291.686 158.186C291.686 158.085 291.787 158.085 291.787 158.085L349.038 159.094C349.139 159.094 349.139 159.094 349.139 159.194C349.139 159.295 349.139 159.295 349.139 159.295L286.647 206.479ZM291.888 158.287L286.747 206.075L348.635 159.295L291.888 158.287Z" fill="#C7C7C7" fill-opacity="0.1"/>
<path d="M134.549 248.218C134.549 248.218 134.448 248.218 134.448 248.117V248.016L157.53 214.847C157.53 214.847 157.631 214.847 157.631 214.746C157.631 214.746 157.732 214.746 157.732 214.847L174.463 241.463V241.564L174.363 241.665L134.549 248.218ZM157.53 215.149L134.751 247.916L174.06 241.463L157.53 215.149Z" fill="#C7C7C7" fill-opacity="0.1"/>
<path d="M193.614 242.673L174.363 241.766C174.262 241.766 174.262 241.766 174.262 241.665V241.564L212.059 207.184C212.059 207.184 212.16 207.184 212.261 207.184C212.261 207.184 212.362 207.285 212.261 207.386L193.715 242.774C193.715 242.673 193.614 242.673 193.614 242.673ZM174.665 241.463L193.513 242.371L211.656 207.689L174.665 241.463Z" fill="#C7C7C7" fill-opacity="0.1"/>
<path d="M174.363 241.665C174.262 241.665 174.262 241.665 174.262 241.564L157.53 214.948V214.847L157.631 214.746L212.261 206.983C212.362 206.983 212.362 206.983 212.362 207.084V207.184L174.363 241.665ZM157.732 215.048L174.363 241.362L211.757 207.386L157.732 215.048Z" fill="#C7C7C7" fill-opacity="0.1"/>
<path d="M193.614 242.673C193.614 242.673 193.513 242.673 193.513 242.572V242.471L237.056 200.228H237.157C237.157 200.228 237.258 200.228 237.258 200.329L247.236 230.071V230.171C247.236 230.171 247.236 230.272 247.135 230.272L193.614 242.673ZM237.056 200.53L194.017 242.371L246.934 230.071L237.056 200.53Z" fill="#C7C7C7" fill-opacity="0.1"/>
<path d="M193.614 242.673C193.614 242.673 193.513 242.673 193.614 242.673C193.513 242.572 193.513 242.572 193.513 242.471L212.059 207.084C212.059 207.084 212.059 206.983 212.16 206.983L237.157 200.127C237.258 200.127 237.258 200.127 237.258 200.228C237.258 200.228 237.258 200.329 237.258 200.43L193.614 242.673ZM212.261 207.285L194.118 241.866L236.653 200.53L212.261 207.285Z" fill="#C7C7C7" fill-opacity="0.1"/>
<path d="M272.233 247.109L246.934 230.171L246.833 230.071C246.833 230.071 246.833 229.97 246.934 229.97L279.389 208.798H279.49L279.591 208.898L272.334 247.008C272.435 247.008 272.334 247.008 272.233 247.109C272.334 247.109 272.334 247.109 272.233 247.109ZM247.337 230.071L272.233 246.706L279.389 209.1L247.337 230.071Z" fill="#C7C7C7" fill-opacity="0.1"/>
<path d="M247.035 230.171C246.934 230.171 246.934 230.171 246.934 230.071L236.956 200.329V200.228H237.056L279.49 208.798C279.49 208.798 279.591 208.798 279.591 208.898C279.591 208.898 279.591 208.999 279.49 208.999L247.035 230.171C247.136 230.171 247.136 230.171 247.035 230.171ZM237.258 200.43L247.136 229.869L279.188 208.898L237.258 200.43Z" fill="#C7C7C7" fill-opacity="0.1"/>
<path d="M316.28 259.308L272.233 247.109C272.233 247.109 272.132 247.109 272.132 247.008V246.907L286.445 206.277L286.546 206.176C286.546 206.176 286.647 206.176 286.647 206.277L316.381 259.107C316.381 259.107 316.381 259.207 316.28 259.308C316.381 259.308 316.28 259.308 316.28 259.308ZM272.435 246.907L315.978 259.006L286.647 206.68L272.435 246.907Z" fill="#C7C7C7" fill-opacity="0.1"/>
<path d="M272.233 247.109C272.132 247.109 272.132 247.008 272.132 247.008L279.389 208.898C279.389 208.898 279.389 208.798 279.49 208.798L286.546 206.277H286.647V206.378L272.435 247.008C272.334 247.008 272.334 247.109 272.233 247.109ZM279.591 208.898L272.636 245.294L286.344 206.479L279.591 208.898Z" fill="#C7C7C7" fill-opacity="0.1"/>
<path d="M316.28 259.308C316.28 259.308 316.179 259.308 316.28 259.308C316.179 259.207 316.179 259.207 316.179 259.107L341.478 211.318C341.478 211.217 341.579 211.217 341.579 211.217C341.68 211.217 341.68 211.318 341.68 211.318L335.733 250.94C335.733 250.94 335.733 251.041 335.632 251.041L316.28 259.308ZM341.378 212.125L316.582 258.905L335.532 250.94L341.378 212.125Z" fill="#C7C7C7" fill-opacity="0.1"/>
<path d="M316.28 259.308C316.28 259.308 316.179 259.308 316.179 259.207L286.546 206.378V206.277L286.647 206.176L341.579 211.217C341.579 211.217 341.68 211.217 341.68 211.318V211.419L316.381 259.207C316.381 259.207 316.381 259.308 316.28 259.308ZM286.848 206.479L316.28 258.905L341.378 211.52L286.848 206.479Z" fill="#C7C7C7" fill-opacity="0.1"/>
<path d="M97.8601 278.968C97.7593 278.968 97.7593 278.968 97.7593 278.867C97.7593 278.766 97.7593 278.766 97.8601 278.666L174.362 241.463C174.463 241.463 174.463 241.463 174.564 241.463C174.564 241.463 174.564 241.564 174.564 241.665L153.095 268.08C153.095 268.08 153.095 268.08 152.994 268.08L97.8601 278.968ZM173.858 241.967L98.7672 278.565L152.893 267.878L173.858 241.967Z" fill="#C7C7C7" fill-opacity="0.1"/>
<path d="M97.8601 278.968C97.8601 278.968 97.7593 278.968 97.7593 278.867C97.7593 278.766 97.7593 278.766 97.7593 278.666L134.448 248.016C134.448 248.016 134.448 248.016 134.549 248.016L174.362 241.463H174.463C174.463 241.463 174.463 241.564 174.463 241.665L97.8601 278.968ZM134.549 248.218L98.7672 278.262L173.556 241.866L134.549 248.218Z" fill="#C7C7C7" fill-opacity="0.1"/>
<path d="M204.097 269.592L152.994 268.08C152.894 268.08 152.894 268.08 152.894 267.979C152.894 267.878 152.894 267.878 152.994 267.878L193.614 242.471H193.715C193.715 242.471 193.816 242.471 193.816 242.572L204.298 269.592V269.693C204.097 269.592 204.097 269.592 204.097 269.592ZM153.398 267.878L203.895 269.39L193.513 242.774L153.398 267.878Z" fill="#C7C7C7" fill-opacity="0.1"/>
<path d="M152.994 268.08C152.994 268.08 152.894 268.08 152.994 268.08C152.894 267.979 152.894 267.878 152.894 267.878L174.262 241.463C174.262 241.463 174.363 241.362 174.363 241.463L193.614 242.371C193.715 242.371 193.715 242.371 193.715 242.471C193.715 242.572 193.715 242.572 193.614 242.572L152.994 268.08ZM174.363 241.665L153.498 267.374L193.11 242.572L174.363 241.665Z" fill="#C7C7C7" fill-opacity="0.1"/>
<path d="M230.202 288.748L203.996 269.592C203.996 269.592 203.996 269.491 203.895 269.491V269.39L246.934 229.97C246.934 229.97 247.035 229.97 247.135 229.97L247.236 230.071L230.404 288.647C230.303 288.647 230.303 288.748 230.202 288.748ZM204.298 269.491L230.202 288.445L246.833 230.474L204.298 269.491Z" fill="#C7C7C7" fill-opacity="0.1"/>
<path d="M204.097 269.592C203.996 269.592 203.996 269.592 203.996 269.491L193.513 242.471V242.371C193.513 242.371 193.513 242.27 193.614 242.27L247.035 229.768C247.135 229.768 247.135 229.768 247.135 229.869C247.135 229.97 247.135 229.97 247.135 230.071L204.097 269.592ZM193.816 242.572L204.197 269.289L246.732 230.272L193.816 242.572Z" fill="#C7C7C7" fill-opacity="0.1"/>
<path d="M230.202 288.748C230.202 288.748 230.102 288.748 230.202 288.748C230.102 288.647 230.102 288.546 230.102 288.546L272.133 246.907C272.133 246.907 272.233 246.907 272.334 246.907C272.334 246.907 272.435 247.008 272.334 247.109L264.875 265.458C264.875 265.458 264.875 265.458 264.875 265.559L230.202 288.748C230.303 288.748 230.202 288.748 230.202 288.748ZM271.931 247.512L231.311 287.84L264.775 265.257L271.931 247.512Z" fill="#C7C7C7" fill-opacity="0.1"/>
<path d="M230.202 288.748C230.102 288.748 230.102 288.647 230.102 288.546L246.934 229.97C246.934 229.97 246.934 229.869 247.035 229.869H247.136L272.334 246.807L272.435 246.907V247.008L230.202 288.748C230.303 288.748 230.303 288.748 230.202 288.748ZM247.136 230.272L230.505 288.243L272.032 247.008L247.136 230.272Z" fill="#C7C7C7" fill-opacity="0.1"/>
<path d="M287.856 295.099C287.856 295.099 287.756 295.099 287.856 295.099L264.674 265.358V265.257L264.775 265.156L316.28 259.006C316.381 259.006 316.381 259.006 316.381 259.107V259.208L287.856 295.099C287.957 295.099 287.957 295.099 287.856 295.099ZM265.077 265.358L287.957 294.696L316.079 259.208L265.077 265.358Z" fill="#C7C7C7" fill-opacity="0.1"/>
<path d="M264.775 265.458C264.775 265.458 264.775 265.357 264.775 265.458C264.674 265.357 264.674 265.357 264.674 265.257L272.133 246.907C272.133 246.807 272.233 246.807 272.233 246.807L316.28 259.006C316.381 259.006 316.381 259.107 316.381 259.107C316.381 259.207 316.28 259.207 316.28 259.207L264.775 265.458ZM272.334 247.109L264.976 265.156L315.575 259.107L272.334 247.109Z" fill="#C7C7C7" fill-opacity="0.1"/>
<path d="M287.856 295.099C287.856 295.099 287.755 295.099 287.755 294.998C287.755 294.898 287.755 294.898 287.755 294.797L335.431 250.839H335.532C335.532 250.839 335.632 250.839 335.632 250.94L344.704 279.472V279.573C344.704 279.573 344.704 279.674 344.603 279.674L287.856 295.099ZM335.532 251.243L288.36 294.696L344.502 279.472L335.532 251.243Z" fill="#C7C7C7" fill-opacity="0.1"/>
<path d="M287.856 295.099C287.755 294.998 287.755 294.898 287.755 294.898L316.179 259.107L335.532 250.94C335.632 250.94 335.632 250.94 335.733 250.94C335.733 251.041 335.733 251.041 335.733 251.142L287.856 295.099C287.957 295.099 287.856 295.099 287.856 295.099ZM316.381 259.308L288.965 293.789L334.927 251.444L316.381 259.308Z" fill="#C7C7C7" fill-opacity="0.1"/>
<path d="M111.568 332.1L61.7761 306.895L61.6753 306.794V306.694L97.6586 278.666H97.7594C97.7594 278.666 97.8602 278.666 97.8602 278.766L111.568 331.898C111.669 331.999 111.669 332.1 111.568 332.1C111.669 332.1 111.568 332.1 111.568 332.1ZM62.0785 306.794L111.367 331.697L97.7594 278.968L62.0785 306.794Z" fill="#C7C7C7" fill-opacity="0.1"/>
<path d="M111.568 332.1C111.568 332.1 111.467 332.1 111.467 331.999V331.898L152.893 267.878L152.994 267.777C153.095 267.777 153.095 267.878 153.095 267.878L155.01 320.808C155.01 320.909 155.01 320.909 154.909 320.909L111.568 332.1ZM152.893 268.382L111.87 331.798L154.809 320.808L152.893 268.382Z" fill="#C7C7C7" fill-opacity="0.1"/>
<path d="M111.568 332.1C111.467 332.1 111.467 332.1 111.467 331.999L97.7593 278.867V278.766C97.7593 278.766 97.7593 278.766 97.8601 278.666L152.994 267.777C152.994 267.777 153.095 267.777 153.095 267.878V267.979L111.669 331.999C111.669 332.1 111.568 332.1 111.568 332.1ZM98.0616 278.968L111.669 331.697L152.793 268.18L98.0616 278.968Z" fill="#C7C7C7" fill-opacity="0.1"/>
<path d="M154.909 321.01C154.909 321.01 154.809 321.01 154.809 320.909C154.809 320.909 154.809 320.808 154.809 320.707L203.996 269.39H204.097C204.097 269.39 204.197 269.39 204.197 269.491L212.362 305.383C212.362 305.484 212.362 305.484 212.261 305.484L154.909 321.01ZM203.996 269.793L155.313 320.607L212.059 305.282L203.996 269.793Z" fill="#C7C7C7" fill-opacity="0.1"/>
<path d="M154.909 321.01C154.809 321.01 154.809 320.909 154.809 320.909L152.894 267.979V267.878H152.994L204.097 269.39C204.097 269.39 204.198 269.39 204.198 269.491V269.592L154.909 321.01C155.01 320.909 154.909 321.01 154.909 321.01ZM153.095 268.08L155.01 320.506L203.794 269.592L153.095 268.08Z" fill="#C7C7C7" fill-opacity="0.1"/>
<path d="M218.914 313.348L212.06 305.484C212.06 305.383 212.06 305.383 212.06 305.282L230.102 288.546C230.102 288.546 230.202 288.546 230.303 288.546C230.303 288.546 230.404 288.647 230.303 288.748L219.014 313.348C219.014 313.247 219.014 313.348 218.914 313.348ZM212.362 305.383L218.914 312.944L229.799 289.151L212.362 305.383Z" fill="#C7C7C7" fill-opacity="0.1"/>
<path d="M212.16 305.484C212.059 305.484 212.059 305.383 212.059 305.383L203.895 269.491C203.895 269.39 203.895 269.39 203.996 269.39H204.097L230.202 288.546C230.202 288.546 230.202 288.647 230.303 288.647V288.748L212.16 305.484C212.261 305.484 212.261 305.484 212.16 305.484ZM204.298 269.793L212.362 305.08L230.101 288.546L204.298 269.793Z" fill="#C7C7C7" fill-opacity="0.1"/>
<path d="M218.913 313.348C218.913 313.348 218.812 313.348 218.812 313.247V313.146L264.674 265.257H264.774L264.875 265.357L270.318 309.516V309.617H270.217L218.913 313.348ZM264.674 265.559L219.216 313.045L270.016 309.315L264.674 265.559Z" fill="#C7C7C7" fill-opacity="0.1"/>
<path d="M218.913 313.348C218.812 313.247 218.813 313.247 218.813 313.146L230.101 288.546C230.101 288.546 230.101 288.546 230.101 288.445L264.674 265.156C264.774 265.156 264.774 265.156 264.875 265.156C264.875 265.156 264.875 265.257 264.875 265.357L218.913 313.348C219.014 313.348 219.014 313.348 218.913 313.348ZM230.303 288.748L219.417 312.541L263.968 266.063L230.303 288.748Z" fill="#C7C7C7" fill-opacity="0.1"/>
<path d="M270.217 309.617C270.117 309.617 270.117 309.516 270.117 309.516L264.674 265.357C264.674 265.257 264.674 265.257 264.775 265.257C264.875 265.257 264.875 265.257 264.875 265.257L287.957 294.898C287.957 294.998 287.957 294.998 287.957 295.099L270.217 309.617C270.318 309.516 270.318 309.617 270.217 309.617ZM264.976 265.761L270.318 309.214L287.655 294.998L264.976 265.761Z" fill="#C7C7C7" fill-opacity="0.1"/>
<path d="M295.113 322.321C295.013 322.321 295.013 322.321 295.013 322.22V322.119L344.502 279.472H344.603L344.704 279.573L347.425 321.111V321.212H347.325L295.113 322.321ZM344.502 279.875L295.517 322.119L347.224 321.01L344.502 279.875Z" fill="#C7C7C7" fill-opacity="0.1"/>
<path d="M295.113 322.321C295.013 322.321 295.012 322.22 295.012 322.22L287.755 294.998C287.755 294.898 287.755 294.898 287.856 294.797L344.603 279.371C344.704 279.371 344.704 279.371 344.704 279.472C344.704 279.573 344.704 279.573 344.704 279.674L295.113 322.321C295.214 322.321 295.214 322.321 295.113 322.321ZM288.058 295.099L295.214 322.018L344.099 279.875L288.058 295.099Z" fill="#C7C7C7" fill-opacity="0.1"/>
<g filter="url(#filter0_f_905_57)">
<ellipse cx="217.111" cy="167.447" rx="21.3895" ry="21.3762" fill="#FF312C" fill-opacity="0.5"/>
</g>
</g>
<defs>
<filter id="filter0_f_905_57" x="-4.27881" y="-53.929" width="442.779" height="442.752" filterUnits="userSpaceOnUse" color-interpolation-filters="sRGB">
<feFlood flood-opacity="0" result="BackgroundImageFix"/>
<feBlend mode="normal" in="SourceGraphic" in2="BackgroundImageFix" result="shape"/>
<feGaussianBlur stdDeviation="100" result="effect1_foregroundBlur_905_57"/>
</filter>
<clipPath id="clip0_905_57">
<rect width="508" height="321" fill="white" transform="translate(-113)"/>
</clipPath>
</defs>
</svg>
