<svg width="18" height="16" viewBox="0 0 18 16" fill="none" xmlns="http://www.w3.org/2000/svg">
<path d="M9 6.2644C10.6892 6.2644 12.0586 4.89503 12.0586 3.20581C12.0586 1.5166 10.6892 0.147217 9 0.147217C7.31079 0.147217 5.94141 1.5166 5.94141 3.20581C5.94141 4.89503 7.31079 6.2644 9 6.2644Z" fill="white"/>
<path d="M15.1875 6.2644C16.2554 6.2644 17.1211 5.39871 17.1211 4.33081C17.1211 3.26292 16.2554 2.39722 15.1875 2.39722C14.1196 2.39722 13.2539 3.26292 13.2539 4.33081C13.2539 5.39871 14.1196 6.2644 15.1875 6.2644Z" fill="white"/>
<path d="M2.8125 6.2644C3.88039 6.2644 4.74609 5.39871 4.74609 4.33081C4.74609 3.26292 3.88039 2.39722 2.8125 2.39722C1.74461 2.39722 0.878906 3.26292 0.878906 4.33081C0.878906 5.39871 1.74461 6.2644 2.8125 6.2644Z" fill="white"/>
<path d="M4.71762 8.00073C3.95648 7.37712 3.26718 7.45967 2.38711 7.45967C1.07086 7.45967 0 8.5242 0 9.83237V13.6718C0 14.2399 0.463711 14.7019 1.03395 14.7019C3.4958 14.7019 3.19922 14.7464 3.19922 14.5957C3.19922 11.8751 2.87698 9.87993 4.71762 8.00073V8.00073Z" fill="white"/>
<path d="M9.83693 7.47373C8.29976 7.34552 6.96364 7.47521 5.81119 8.42647C3.88262 9.97123 4.25377 12.0512 4.25377 14.5957C4.25377 15.2689 4.8015 15.8269 5.48494 15.8269C12.9058 15.8269 13.2011 16.0662 13.6412 15.0917C13.7855 14.7622 13.746 14.8669 13.746 11.7143C13.746 9.21024 11.5778 7.47373 9.83693 7.47373V7.47373Z" fill="white"/>
<path d="M15.6127 7.45971C14.7279 7.45971 14.0423 7.378 13.2822 8.00076C15.1091 9.86601 14.8006 11.725 14.8006 14.5957C14.8006 14.7474 14.5544 14.7019 16.929 14.7019C17.5196 14.7019 17.9998 14.2234 17.9998 13.6353V9.8324C17.9998 8.52424 16.929 7.45971 15.6127 7.45971Z" fill="white"/>
</svg>
